<?xml version="1.0" standalone="no"?>
<!DOCTYPE svg PUBLIC "-//W3C//DTD SVG 20010904//EN"
 "http://www.w3.org/TR/2001/REC-SVG-20010904/DTD/svg10.dtd">
<svg version="1.0" xmlns="http://www.w3.org/2000/svg"
 width="444.000000pt" height="445.000000pt" viewBox="0 0 444.000000 445.000000"
 preserveAspectRatio="xMidYMid meet">

<g transform="translate(0.000000,445.000000) scale(0.100000,-0.100000)"
fill="#000000" stroke="none">
<path d="M2100 4434 c-485 -39 -862 -179 -1235 -459 -166 -124 -385 -364 -519
-568 -144 -221 -267 -546 -318 -847 -21 -120 -17 -580 5 -700 69 -370 205
-686 413 -962 408 -539 1013 -856 1689 -885 520 -21 1055 156 1464 485 449
360 726 850 812 1437 20 135 17 464 -5 605 -100 647 -452 1194 -995 1545 -270
175 -567 284 -896 330 -105 15 -338 25 -415 19z m330 -39 c74 -8 171 -22 215
-31 820 -162 1485 -798 1690 -1613 47 -188 60 -302 60 -526 0 -362 -62 -634
-215 -950 -115 -238 -255 -431 -456 -625 -195 -189 -421 -339 -654 -434 -36
-15 -74 -31 -85 -36 -39 -18 -211 -70 -280 -85 -559 -121 -1123 -32 -1603 253
-154 92 -283 193 -423 332 -419 417 -641 948 -642 1540 -1 349 73 668 227 973
222 442 549 768 987 986 250 125 497 192 819 224 87 9 236 6 360 -8z"/>
<path d="M1990 4344 c-512 -64 -958 -285 -1306 -646 -222 -230 -380 -490 -483
-791 -135 -394 -148 -853 -34 -1257 271 -968 1193 -1620 2192 -1549 616 43
1166 337 1542 822 397 512 538 1192 379 1822 -188 746 -773 1339 -1514 1535
-200 53 -275 62 -516 65 -124 2 -241 1 -260 -1z m-904 -530 c5 -28 2 -42 -15
-64 -11 -16 -21 -35 -21 -42 -1 -16 -29 -67 -30 -53 0 6 5 26 11 45 6 19 10
52 10 73 -1 40 13 77 29 77 5 0 12 -16 16 -36z m2314 -34 c0 -47 15 -107 32
-125 5 -5 6 3 2 21 -4 21 -1 34 10 43 13 11 16 11 19 0 2 -8 8 -28 14 -45 5
-16 6 -39 2 -51 -4 -12 0 -36 12 -63 25 -55 24 -63 -2 -22 -12 17 -25 32 -30
32 -4 0 -5 7 -2 17 4 10 2 14 -4 10 -10 -6 -63 97 -63 122 0 7 -7 19 -15 27
-15 15 -21 85 -8 97 15 16 33 -18 33 -63z m-2240 -86 c0 -16 -8 -27 -23 -33
-33 -13 -47 -33 -44 -67 2 -24 -2 -30 -22 -32 -29 -4 -73 -31 -67 -41 3 -4 -6
-8 -20 -9 -23 -2 -22 0 12 30 20 18 43 47 51 65 7 18 18 33 24 33 17 0 48 43
49 66 0 11 3 24 7 27 11 12 33 -14 33 -39z m1333 21 c262 -46 538 -181 744
-364 242 -215 418 -529 479 -856 26 -139 26 -401 0 -540 -86 -463 -369 -848
-786 -1072 -186 -100 -457 -173 -645 -173 l-66 0 24 43 c34 59 51 161 43 261
-6 79 -6 83 16 93 13 6 43 27 68 48 38 32 46 35 49 20 4 -22 -33 -53 -72 -62
-45 -9 -42 -23 6 -23 59 0 89 25 117 97 12 32 26 68 31 81 6 16 17 22 41 22
30 1 31 2 15 14 -18 14 -17 16 8 56 l26 41 62 -6 c34 -3 88 -11 119 -17 33 -6
85 -7 122 -3 112 12 90 28 -56 42 -38 3 -71 10 -74 14 -3 5 0 9 6 9 6 0 9 4 6
9 -3 4 -28 4 -55 -2 -28 -5 -62 -6 -78 -1 -22 6 -10 9 56 15 47 3 99 3 115 -2
17 -5 73 -9 123 -9 62 0 93 -4 93 -11 0 -15 97 -6 112 9 21 21 -3 27 -130 30
-70 2 -134 6 -142 9 -8 3 -64 5 -124 4 -102 -3 -108 -2 -101 16 4 10 12 30 17
46 6 16 17 27 28 27 11 0 22 5 25 10 3 6 -2 10 -12 10 -17 0 -19 9 -19 83 0
71 -4 91 -31 149 -38 81 -78 141 -127 188 -20 19 -36 40 -36 47 0 14 53 47
105 63 38 13 39 13 16 24 -16 7 -40 45 -79 128 -30 65 -57 117 -58 115 -2 -2
12 -47 31 -101 19 -53 35 -103 35 -110 0 -8 -19 -15 -52 -19 -29 -4 -62 -9
-73 -12 -19 -6 -22 3 -45 134 -13 77 -25 139 -27 138 -1 -2 -3 -42 -4 -90 -1
-48 -5 -87 -9 -87 -12 0 -20 97 -13 165 3 36 3 65 -2 65 -41 0 -118 -121 -131
-206 -5 -36 -10 -44 -28 -44 -46 0 -49 12 -26 95 12 42 20 79 17 81 -2 2 -19
-34 -38 -81 l-34 -85 -92 0 -92 0 68 103 c37 56 71 109 75 117 9 18 12 22
-106 -122 l-88 -106 -67 -12 c-74 -13 -118 -32 -127 -55 -4 -11 21 -42 85
-103 50 -48 96 -89 103 -90 6 -2 -2 8 -19 22 -26 22 -28 25 -10 26 16 1 14 4
-10 15 -51 24 -81 52 -69 65 8 8 15 8 25 -3 8 -8 37 -20 65 -27 46 -12 50 -15
46 -40 -5 -37 25 -36 33 2 5 19 13 28 26 28 10 0 19 -4 19 -10 0 -5 -6 -10
-14 -10 -19 0 -28 -28 -16 -48 8 -14 10 -13 11 8 l1 25 8 -25 c7 -23 8 -23 9
-3 1 29 11 53 22 53 5 0 4 -12 -1 -26 -13 -33 -13 -54 0 -54 6 0 10 16 10 35
0 19 5 35 11 35 6 0 41 -20 78 -44 36 -24 113 -70 171 -100 58 -31 119 -70
136 -87 49 -47 85 -123 91 -188 7 -70 -19 -171 -43 -171 -11 0 -14 5 -10 17 4
9 9 35 12 58 5 33 0 48 -26 87 -38 57 -112 124 -160 146 -47 22 -46 21 -27 35
16 11 15 15 -9 50 -27 41 -108 87 -152 87 -13 0 -37 -9 -52 -20 l-29 -20 -28
29 c-15 16 -41 37 -58 47 -18 11 -9 -1 24 -32 l54 -50 -63 -67 -64 -67 -133 0
c-82 0 -133 -4 -133 -10 0 -6 47 -10 120 -10 66 0 120 -2 120 -5 0 -15 -134
-184 -141 -179 -5 3 -43 0 -85 -7 -84 -13 -82 -29 3 -29 59 0 70 -9 51 -43
-12 -21 -17 -23 -48 -14 l-35 9 24 13 c23 12 22 13 -20 19 -25 4 -57 13 -72
21 -18 9 -35 11 -50 6 -26 -10 -50 -2 -102 33 -21 14 -48 26 -61 26 -53 0 -11
32 59 45 27 5 51 0 105 -24 68 -30 122 -40 122 -23 0 5 -11 14 -24 20 -14 6
-35 25 -47 41 -13 17 -28 31 -35 31 -7 0 -31 16 -54 35 -23 19 -45 35 -50 35
-4 0 -10 20 -13 45 -4 25 -16 58 -28 74 -13 17 -24 53 -29 96 -9 69 -49 165
-92 218 -17 21 -38 31 -72 38 -80 15 -119 66 -92 120 14 28 13 29 -7 29 -16 0
-29 13 -47 47 -33 61 -50 67 -50 16 0 -23 -10 -54 -25 -78 -13 -22 -25 -48
-25 -57 0 -10 -4 -18 -10 -18 -13 0 -12 10 4 150 16 130 53 257 92 313 20 29
29 36 38 27 12 -12 15 -158 4 -230 l-7 -45 36 0 c30 0 41 -6 59 -33 12 -18 25
-55 29 -82 l7 -50 28 15 c102 53 160 -19 168 -207 l5 -106 33 5 c32 5 35 3 52
-36 15 -37 20 -40 47 -36 39 7 53 -3 70 -51 l14 -39 1 38 c0 64 -24 97 -72 97
-21 0 -28 5 -28 19 0 26 -38 71 -61 71 -16 0 -19 7 -19 43 0 64 -27 174 -51
213 -28 46 -70 67 -117 59 l-37 -6 -12 52 c-14 58 -51 104 -90 114 -18 4 -23
10 -18 23 3 9 9 29 12 44 4 21 13 29 37 33 41 7 488 72 594 87 118 15 94 22
-35 9 -59 -6 -205 -18 -323 -26 -118 -8 -225 -17 -236 -20 -19 -4 -23 1 -29
42 -4 26 -15 63 -25 83 l-18 35 39 66 39 66 58 -8 c31 -5 131 -18 222 -29 91
-12 213 -28 273 -36 121 -18 165 -14 67 5 -57 11 -498 103 -558 116 -23 6 -23
6 -5 36 29 49 107 116 151 130 46 13 46 29 0 29 -48 0 -94 -27 -153 -92 -51
-54 -138 -190 -181 -280 -16 -35 -16 -39 -1 -56 16 -18 16 -19 -8 -30 -32 -15
-81 -92 -101 -157 -26 -89 -44 -218 -52 -374 -6 -132 -5 -151 8 -149 8 2 19
18 25 36 6 20 16 32 27 32 20 0 35 24 40 63 4 25 43 77 59 77 4 0 9 -19 11
-42 3 -24 8 -50 12 -59 5 -11 -4 -23 -33 -43 -22 -16 -43 -37 -46 -47 -4 -11
-11 -19 -16 -19 -6 0 -8 9 -4 19 3 11 2 22 -4 25 -5 3 -11 -5 -15 -17 -3 -13
-17 -29 -31 -35 -20 -9 -25 -19 -25 -45 0 -40 42 -248 65 -325 14 -48 18 -52
29 -37 11 16 14 11 19 -35 7 -61 61 -180 113 -251 36 -50 54 -61 54 -34 0 8 3
15 8 15 4 0 7 -18 8 -40 0 -36 7 -48 62 -103 l62 -62 0 45 0 45 118 -1 c64 0
137 -6 161 -13 42 -12 127 -9 170 6 9 4 5 -6 -11 -24 -27 -28 -39 -71 -17 -58
5 4 47 3 92 -1 l82 -8 -60 -12 -60 -12 110 0 c79 1 121 -4 148 -15 20 -9 37
-19 37 -23 0 -4 -48 -4 -107 -1 -83 4 -102 3 -83 -6 14 -6 72 -11 131 -12 137
-2 161 -15 179 -93 6 -30 30 -107 51 -171 21 -64 39 -117 39 -118 0 -8 -118
-1 -198 12 -334 54 -609 193 -843 425 -303 300 -465 713 -446 1140 26 579 371
1082 907 1321 119 54 296 103 425 118 106 13 338 6 448 -14z m833 -10 c3 -20
17 -44 32 -56 14 -11 34 -34 45 -52 10 -18 33 -44 49 -58 l30 -26 -47 -1 c-65
-2 -107 -28 -121 -77 -18 -67 -44 -49 -44 33 0 26 4 32 20 32 12 0 32 7 46 16
18 12 36 15 67 10 l42 -6 -25 20 c-14 11 -35 20 -47 20 -19 0 -23 5 -23 33 0
34 -18 58 -52 70 -20 7 -23 29 -8 58 16 29 28 23 36 -16z m-2314 -26 c7 -51 1
-82 -14 -73 -6 4 -8 2 -5 -4 9 -13 -2 -44 -13 -37 -5 3 -11 -3 -15 -14 -3 -11
-13 -25 -21 -32 -13 -11 -13 -7 2 26 10 22 17 56 16 75 -2 49 16 112 31 107 7
-2 15 -24 19 -48z m-103 -146 c-7 -37 -21 -77 -31 -88 -48 -52 -78 -94 -78
-109 0 -40 51 9 70 67 12 39 41 62 66 53 19 -7 18 -23 -7 -57 -22 -32 -20 -36
11 -17 30 19 52 -8 48 -58 l-3 -39 -18 33 c-10 17 -24 32 -32 32 -8 0 -40 -22
-70 -50 -30 -27 -59 -50 -64 -50 -15 0 -39 35 -42 60 -5 55 3 74 55 128 67 71
76 89 76 148 0 45 1 47 16 32 15 -14 15 -24 3 -85z m2647 72 c-12 -46 13 -107
64 -160 56 -58 70 -83 70 -122 0 -34 -25 -73 -47 -73 -9 0 -40 23 -70 51 -29
28 -59 49 -66 47 -6 -2 -20 -20 -30 -39 l-18 -34 3 49 c4 60 26 80 57 52 12
-11 21 -14 21 -8 0 7 -4 12 -8 12 -16 0 -41 56 -32 70 16 25 62 -8 80 -56 8
-23 21 -49 29 -58 14 -17 41 -22 41 -7 0 9 -46 72 -77 106 -33 36 -54 160 -31
183 18 18 21 15 14 -13z m-2416 -92 c40 -10 48 -33 30 -89 -14 -41 -28 -35
-39 18 -5 28 -15 38 -61 61 l-55 29 45 -5 c25 -3 61 -9 80 -14z m-118 -30 c10
-9 18 -21 18 -27 0 -6 12 -29 26 -49 18 -27 24 -46 20 -63 -9 -35 -36 -31 -36
6 0 43 -23 93 -54 117 -18 14 -22 23 -14 26 20 8 20 8 40 -10z m2458 -1 c0 -4
-10 -12 -22 -17 -30 -13 -60 -67 -62 -110 -1 -41 -13 -48 -32 -20 -11 18 -8
28 27 88 32 54 45 67 64 67 14 0 25 -3 25 -8z m-2932 -164 c-2 -52 0 -68 11
-68 19 0 6 -64 -25 -116 -13 -22 -24 -49 -23 -60 0 -14 3 -12 11 9 11 30 17
32 41 15 15 -11 15 -18 4 -55 -13 -45 -22 -58 -40 -58 -19 0 -21 -37 -2 -47 9
-6 15 -19 13 -31 -4 -31 15 -34 29 -6 7 13 17 23 22 22 6 -2 13 6 16 17 12 39
25 19 22 -35 -3 -52 -2 -54 14 -39 26 23 42 8 36 -32 -5 -32 -4 -34 17 -28 19
4 25 0 35 -24 7 -16 11 -45 9 -63 l-3 -34 -20 40 c-26 53 -60 65 -114 40 -33
-14 -43 -15 -56 -5 -20 17 -19 40 4 64 20 21 20 21 -16 21 -35 0 -37 -3 -84
-90 -61 -115 -119 -305 -118 -383 l1 -57 9 60 c17 113 59 203 59 125 0 -38 16
-39 23 -1 6 29 27 44 49 35 23 -9 68 -77 68 -101 0 -33 -21 -24 -34 14 -15 42
-21 47 -50 39 -55 -14 -97 -147 -99 -311 -2 -119 -2 -121 33 -190 19 -39 37
-73 38 -77 7 -16 -56 -7 -70 10 -14 15 -60 142 -52 142 2 0 13 -18 24 -40 11
-22 22 -40 25 -40 4 0 0 12 -38 101 -36 85 -30 275 15 449 28 108 30 227 5
292 -24 63 -41 76 -67 53 -21 -19 -27 -69 -9 -80 5 -4 8 -12 6 -18 -2 -7 2
-20 11 -30 12 -14 13 -22 4 -42 -6 -14 -8 -25 -3 -25 5 0 12 6 15 13 4 6 4 -5
2 -26 -3 -22 -1 -35 5 -32 5 4 9 14 9 24 0 9 5 22 11 28 8 8 6 18 -6 37 -10
15 -13 26 -7 26 35 0 39 -98 7 -160 -12 -23 -22 -30 -45 -30 -42 0 -62 35 -68
121 -9 125 38 239 98 239 18 0 43 -24 53 -50 3 -9 6 -5 7 10 1 21 3 19 16 -15
14 -38 13 -143 -2 -192 -3 -10 15 18 39 62 25 44 53 94 63 110 19 33 20 116 2
145 -8 12 -2 55 22 165 31 143 32 173 13 245 l-6 25 22 -20 c20 -17 22 -27 19
-87z m3387 75 c-19 -47 -16 -110 10 -234 26 -120 27 -136 17 -209 -11 -79 -11
-80 17 -127 16 -27 42 -73 59 -102 l30 -55 -1 90 c-1 49 1 97 4 106 9 29 19
33 20 7 1 -20 2 -21 6 -4 8 32 23 45 52 45 37 0 47 -9 72 -65 32 -72 34 -220
3 -262 -44 -59 -101 -19 -110 78 -4 40 -2 59 10 74 18 24 22 4 5 -28 -9 -16
-9 -22 0 -25 6 -2 11 -14 11 -27 0 -50 15 -30 17 22 1 31 5 59 10 62 5 3 14
26 20 51 10 37 9 49 -3 68 -22 34 -40 27 -65 -25 -32 -66 -32 -195 -2 -313 29
-108 47 -269 38 -340 -4 -30 -18 -86 -31 -124 -27 -74 -27 -103 0 -36 22 57
28 50 9 -12 -23 -78 -40 -107 -69 -114 -46 -12 -48 9 -7 82 38 69 38 69 38
185 -1 99 -5 128 -29 203 -42 129 -95 163 -124 79 -7 -24 -18 -43 -23 -43 -19
0 -7 48 22 89 39 52 69 53 84 4 12 -43 25 -42 25 3 0 19 4 33 9 29 14 -8 40
-91 51 -160 l9 -60 -3 75 c-4 92 -56 255 -123 381 -41 79 -48 87 -67 79 -13
-5 -30 -4 -42 2 -12 7 -9 1 9 -16 31 -30 34 -48 12 -70 -16 -15 -34 -13 -70
10 -36 23 -77 4 -102 -46 l-22 -45 -1 52 c0 62 19 89 52 72 18 -10 20 -9 14 7
-9 22 -9 23 -7 47 1 21 19 22 41 2 15 -14 16 -10 13 40 -3 54 10 74 22 35 4
-11 10 -18 14 -15 5 2 13 -7 19 -20 16 -34 32 -31 32 5 0 20 5 30 15 30 25 0
17 40 -10 50 -14 5 -25 17 -25 27 -1 10 -8 29 -16 43 -15 25 -15 24 -9 -14 4
-21 13 -50 22 -63 36 -55 -4 -35 -101 50 -24 20 -53 37 -64 37 -14 0 -20 5
-16 14 7 19 38 30 42 17 2 -6 12 -11 23 -11 11 0 21 -9 25 -25 3 -13 13 -30
22 -37 13 -11 14 -10 4 9 -17 31 -15 52 3 29 22 -29 25 -16 7 27 -16 35 -32
49 -32 26 0 -5 -5 -7 -11 -3 -6 3 -8 16 -5 28 3 13 -1 31 -9 42 -14 18 -14 18
-15 -6 -1 -23 -2 -24 -14 -7 -15 20 -30 23 -23 5 19 -51 18 -58 -2 -58 -18 0
-21 6 -21 40 0 22 -4 40 -8 40 -11 0 -32 -61 -32 -95 0 -23 -3 -26 -12 -17 -7
7 -12 32 -12 57 1 36 8 54 33 85 22 28 35 57 41 95 11 68 15 75 45 75 23 0 23
-1 9 -27 -7 -16 -14 -33 -14 -40 0 -6 -4 -13 -9 -15 -4 -1 -11 -20 -15 -40 -5
-30 -4 -38 8 -38 8 0 17 -6 19 -12 3 -7 6 -3 6 10 1 28 21 30 21 2 0 -12 17
-50 37 -85 31 -54 41 -64 58 -59 11 4 23 11 27 17 3 6 13 -5 21 -24 9 -19 16
-27 16 -18 1 10 -12 43 -29 74 -30 56 -40 115 -20 115 7 0 8 18 4 50 -7 56 9
110 33 110 10 0 13 -5 8 -17z m-3201 -62 c5 -46 14 -68 42 -104 31 -39 35 -51
32 -93 -2 -26 -8 -49 -15 -51 -7 -3 -9 3 -6 16 3 12 -3 38 -13 58 l-19 38 -3
-37 c-2 -29 -8 -38 -22 -38 -16 0 -18 6 -14 38 5 33 4 35 -9 19 -14 -17 -15
-17 -21 0 -7 17 -8 17 -18 0 -5 -10 -7 -25 -4 -33 7 -18 -3 -44 -16 -44 -6 0
-8 7 -4 15 11 30 -9 14 -26 -21 -22 -42 -23 -66 -3 -40 8 11 18 16 22 13 4 -4
1 -13 -5 -19 -17 -17 -15 -33 2 -18 8 6 16 21 18 33 2 12 10 22 18 22 8 0 21
4 28 9 18 11 42 0 42 -18 0 -9 -6 -13 -14 -10 -8 3 -37 -14 -65 -38 -78 -67
-108 -88 -114 -81 -4 3 2 18 12 32 10 14 22 44 25 67 4 22 23 67 42 99 19 31
39 74 43 94 l9 36 2 -35 c1 -19 4 -29 7 -22 2 6 11 12 19 12 20 0 19 76 -1 84
-8 3 -15 16 -15 29 0 13 -5 28 -12 35 -9 9 -5 12 19 12 30 0 31 -1 37 -59z
m1562 -979 c1 -82 6 -108 28 -162 15 -36 28 -71 28 -77 1 -7 5 -13 9 -13 5 0
13 -9 19 -20 9 -17 8 -20 -10 -20 -11 0 -20 5 -20 11 0 5 5 7 12 3 7 -4 8 -3
4 4 -4 7 -17 12 -28 12 -20 0 -20 -1 -5 -18 19 -20 23 -37 7 -27 -5 3 -10 -3
-10 -14 0 -16 6 -21 29 -21 28 0 41 -10 108 -82 18 -19 19 -25 8 -35 -14 -13
-26 -4 -38 27 -4 11 -6 9 -6 -5 -1 -18 -4 -17 -24 9 -14 17 -30 27 -38 24 -11
-4 -9 -8 6 -14 34 -13 46 -36 29 -56 -11 -11 -12 -18 -4 -23 8 -5 7 -11 -2
-23 -12 -15 -11 -16 5 -3 12 9 14 17 7 26 -5 6 -7 15 -3 18 12 12 23 7 24 -10
1 -17 2 -17 6 0 2 9 9 15 14 11 5 -3 6 -11 3 -17 -4 -7 3 -2 15 11 12 12 24
22 26 22 21 0 67 -166 59 -214 -10 -59 -27 -105 -37 -99 -6 4 -8 0 -4 -11 4
-11 3 -15 -4 -10 -7 4 -9 0 -5 -13 4 -13 -1 -26 -16 -40 -13 -11 -28 -29 -35
-39 -7 -10 -5 1 4 26 9 25 23 52 30 61 15 18 17 33 3 24 -5 -3 -8 7 -7 24 1
16 5 27 10 24 4 -2 7 1 7 6 0 6 -4 11 -9 11 -13 0 -51 99 -40 105 7 5 13 -9 7
-17 -1 -2 4 -14 11 -27 9 -16 16 -20 23 -13 7 7 3 20 -12 42 -17 23 -20 34
-11 43 8 8 11 7 11 -3 0 -7 2 -11 5 -8 3 3 3 13 -1 22 -5 14 -9 14 -22 4 -13
-11 -15 -10 -9 6 6 16 5 17 -8 6 -17 -14 -21 -35 -5 -25 6 3 10 -1 10 -9 0
-26 -13 -19 -50 28 -19 24 -47 52 -62 62 -15 10 -24 23 -21 28 4 5 -1 7 -10 3
-9 -3 -19 -2 -22 4 -4 5 -11 7 -16 3 -6 -3 -9 2 -7 12 2 12 -4 19 -17 21 -19
3 -19 3 -1 -5 11 -5 15 -11 9 -15 -14 -9 -55 22 -47 35 5 7 1 9 -9 5 -17 -6
-107 40 -107 56 0 4 12 0 28 -9 l27 -16 -24 20 c-14 11 -31 18 -38 15 -7 -3
-13 0 -13 6 0 6 -8 11 -17 12 -13 0 -11 3 6 10 33 13 21 21 -16 10 -23 -7 -37
-5 -50 5 -10 7 -28 14 -40 14 -14 0 -23 6 -23 16 0 14 -3 14 -15 4 -17 -14
-21 0 -4 17 6 6 8 17 4 23 -5 8 -11 8 -17 2 -6 -6 -18 -8 -27 -5 -13 4 -13 3
-2 -5 8 -6 10 -15 6 -22 -5 -9 -4 -11 3 -6 7 4 12 3 12 -3 0 -5 -4 -13 -10
-16 -5 -3 -10 -1 -10 6 0 7 -8 9 -21 6 -12 -3 -43 6 -75 23 -30 16 -52 25 -49
20 3 -6 -1 -10 -9 -10 -20 0 -21 19 -1 26 8 4 13 10 10 14 -3 4 11 10 30 12
26 3 34 1 31 -8 -3 -8 1 -11 10 -7 8 3 14 2 13 -3 -3 -11 19 -64 26 -64 2 0 0
12 -6 27 -5 14 -7 33 -5 40 3 8 1 11 -4 8 -5 -3 -15 3 -21 14 -10 15 -18 17
-36 10 -14 -5 -34 -9 -46 -8 -18 1 -16 3 8 10 17 6 46 11 66 13 20 2 43 7 50
11 9 6 11 3 6 -8 -3 -10 -2 -17 3 -17 6 0 10 8 10 18 0 14 2 15 10 2 9 -13 10
-13 10 0 0 12 2 12 9 1 5 -7 11 -9 14 -4 10 15 109 16 119 1 5 -8 11 -9 16 -3
11 15 42 15 42 -1 0 -8 8 -14 18 -15 14 0 14 -2 -3 -9 -11 -5 -14 -9 -7 -9 7
-1 10 -6 6 -13 -7 -11 10 -9 49 7 14 6 17 1 18 -31 1 -22 3 -31 6 -22 2 9 13
20 24 23 11 4 17 11 13 16 -3 6 2 9 12 7 16 -2 18 3 16 32 -2 19 -6 44 -9 54
-5 19 -6 19 -16 1 -7 -14 -7 -20 1 -23 7 -2 11 -13 11 -25 -1 -17 -2 -18 -6
-4 -2 9 -9 14 -15 11 -7 -5 -9 2 -4 22 4 16 7 38 7 48 0 11 5 29 12 40 6 12
10 24 9 29 -1 4 2 7 8 7 5 0 7 6 5 13 -4 9 48 87 58 87 1 0 3 -44 3 -98z
m-1346 11 c-1 -13 -61 -75 -67 -69 -9 9 38 76 53 76 8 0 14 -3 14 -7z m1200
-161 c0 -15 2 -15 11 -2 9 13 10 13 6 0 -4 -14 -23 -15 -54 -5 -22 7 -14 21
12 23 18 1 25 -3 25 -16z m-1150 -32 c0 -6 11 -15 25 -20 23 -9 44 -54 31 -67
-3 -3 -29 4 -57 16 -29 12 -53 20 -55 19 -10 -11 52 -215 78 -257 20 -31 22
-33 35 -15 7 10 13 27 13 38 0 17 2 18 10 6 11 -17 13 -139 3 -166 -5 -14 -14
-8 -49 32 -46 53 -63 56 -38 6 8 -18 13 -36 9 -42 -3 -5 -1 -18 4 -27 9 -16
10 -14 11 10 0 15 5 27 11 27 8 0 10 -12 6 -34 -6 -35 -5 -35 36 -38 40 -3 42
-5 50 -43 5 -22 16 -55 25 -73 l16 -33 -38 -36 -38 -36 -19 24 c-42 53 -92
170 -97 223 -4 47 -7 53 -23 49 -25 -7 -46 44 -65 149 -11 65 -11 89 1 159 8
46 18 86 22 89 55 46 93 62 93 40z m710 -10 c0 -4 -7 -13 -15 -20 -22 -18 -44
2 -26 24 12 14 41 12 41 -4z m430 16 c0 -2 -7 -6 -15 -10 -8 -3 -15 -1 -15 4
0 6 7 10 15 10 8 0 15 -2 15 -4z m420 -35 c-8 -6 -18 -7 -22 -5 -4 3 -8 1 -8
-5 0 -6 -11 -6 -31 -1 -30 9 -59 4 -59 -9 0 -4 17 -6 38 -4 26 2 33 0 22 -7
-8 -5 -10 -10 -5 -10 6 0 4 -4 -4 -9 -16 -10 -71 12 -71 29 0 5 -8 7 -17 3
-10 -3 -15 -3 -11 2 11 12 69 23 128 24 37 0 50 -2 40 -8z m-658 -33 c-7 -7
-12 -8 -12 -2 0 6 3 14 7 17 3 4 9 5 12 2 2 -3 -1 -11 -7 -17z m575 -60 c12
-12 20 -25 17 -29 -3 -5 1 -9 9 -9 13 0 51 -38 72 -71 35 -57 83 -159 89 -189
4 -22 3 -28 -2 -16 -6 14 -11 16 -16 7 -5 -7 -1 -20 8 -30 9 -10 16 -24 16
-32 0 -12 -2 -12 -9 0 -6 9 -8 5 -8 -14 0 -20 2 -23 9 -14 6 9 7 2 2 -21 -3
-19 -10 -39 -14 -45 -4 -5 -7 -17 -7 -25 -1 -22 -32 -88 -33 -68 0 9 5 29 12
43 9 21 9 29 -5 42 -15 15 -16 13 -12 -20 1 -21 -1 -34 -6 -31 -5 3 -9 18 -9
35 0 16 -5 29 -10 29 -6 0 -8 -10 -5 -22 3 -13 7 -33 8 -45 0 -12 4 -20 8 -17
4 2 9 -7 11 -21 6 -30 -16 -64 -40 -63 -9 0 -27 -2 -39 -5 -23 -6 -38 15 -27
36 5 9 4 9 -5 1 -10 -9 -10 -17 -1 -33 6 -12 15 -19 20 -16 5 3 11 1 15 -4 3
-5 -3 -14 -12 -20 -10 -6 -13 -11 -6 -11 7 0 10 -7 6 -17 -4 -11 -3 -14 6 -9
6 4 10 13 9 19 -3 18 22 58 32 52 9 -6 -34 -90 -52 -101 -6 -4 -8 -2 -5 3 4 6
0 14 -9 17 -21 8 -21 8 -29 -29 -5 -23 -4 -27 4 -15 9 12 10 8 5 -15 -3 -16
-8 -42 -11 -58 -3 -15 -9 -30 -14 -32 -11 -8 -32 33 -25 50 3 8 0 17 -6 21 -7
4 -8 3 -4 -4 4 -7 5 -12 2 -12 -3 0 -10 9 -16 21 -9 16 -8 20 2 17 8 -2 14 2
15 7 2 8 -36 9 -45 0 -1 -1 2 -14 8 -29 7 -19 7 -25 0 -21 -13 8 -42 -14 -34
-26 3 -5 -1 -9 -9 -9 -7 0 -14 -6 -14 -14 0 -15 26 -10 28 5 1 5 3 14 4 19 1
6 3 13 4 17 0 4 8 -2 17 -13 8 -10 12 -13 8 -5 -5 10 -3 12 6 6 10 -6 7 -14
-14 -32 -15 -12 -34 -23 -42 -23 -8 0 -14 -3 -14 -7 0 -5 -12 -16 -25 -26 -20
-14 -29 -15 -45 -7 -11 6 -18 15 -15 20 3 6 -1 7 -10 4 -9 -4 -15 -3 -14 2 3
14 -12 44 -22 44 -12 0 -11 -51 0 -69 5 -8 24 -19 43 -25 27 -9 34 -17 36 -43
2 -18 -2 -41 -8 -50 -9 -16 -10 -15 -5 5 6 22 5 23 -14 13 -27 -15 -27 -34 0
-46 16 -7 23 -21 25 -50 3 -46 -20 -137 -39 -157 -8 -7 -12 -20 -10 -28 2 -8
-3 -4 -11 10 -8 14 -13 33 -10 43 3 9 1 17 -4 17 -6 0 -8 9 -5 20 3 11 1 20
-5 20 -5 0 -13 12 -17 28 -5 15 -10 32 -11 37 -16 49 -34 124 -36 147 -1 14
-6 24 -10 22 -11 -7 -42 18 -46 35 -5 22 -35 41 -52 34 -23 -9 -52 -5 -60 7
-4 7 -10 11 -14 11 -19 -3 -26 0 -26 10 0 6 7 9 15 5 8 -3 15 -1 15 4 0 12
-12 13 -42 1 -26 -9 -144 10 -132 22 4 4 -8 5 -27 2 -26 -4 -29 -3 -14 4 15 7
16 10 4 10 -8 1 -20 -4 -26 -10 -7 -7 -20 -9 -30 -5 -16 7 -16 9 7 26 14 11
30 20 35 20 6 0 3 -5 -5 -10 -17 -11 -10 -13 14 -4 9 3 13 11 10 16 -4 6 -1 8
7 6 8 -3 13 -13 11 -22 -3 -15 2 -16 35 -10 53 9 79 27 31 20 -23 -3 -41 0
-47 8 -9 10 -2 13 32 12 23 -1 48 3 56 9 11 8 13 7 7 -4 -7 -10 -3 -12 14 -6
15 5 20 4 16 -4 -4 -6 -2 -11 3 -11 6 0 11 5 11 11 0 7 13 8 38 4 52 -8 114
-30 106 -37 -3 -3 1 -6 8 -5 37 1 91 -6 73 -10 -11 -3 -24 -9 -30 -14 -5 -5
11 -3 36 4 25 8 53 10 64 6 20 -7 20 -8 0 -9 -11 -1 -15 -4 -8 -6 7 -3 20 -1
30 5 10 6 12 11 6 11 -20 0 -15 18 7 25 10 3 35 22 55 42 19 19 35 32 35 27 0
-4 8 0 19 10 10 9 25 14 34 11 8 -4 18 -2 22 4 3 7 0 8 -9 5 -26 -10 -18 10
15 36 56 45 149 179 149 214 0 6 9 28 20 48 12 22 16 40 10 43 -13 8 -13 58 1
72 7 7 6 14 -4 24 -17 18 -40 59 -32 59 4 0 13 -7 21 -15 22 -22 32 -19 30 9
0 13 -3 24 -6 24 -19 -1 -23 4 -10 13 13 9 12 10 -3 5 -14 -4 -16 -1 -13 20 3
16 0 27 -9 30 -8 3 -11 12 -8 20 6 16 -13 19 -23 3 -4 -8 -9 -7 -15 2 -7 11
-9 11 -9 -2 0 -8 7 -24 16 -35 14 -18 15 -18 9 6 l-6 25 19 -24 c11 -14 18
-30 15 -37 -2 -7 0 -15 6 -19 18 -11 12 -23 -8 -18 -11 3 -25 19 -32 36 -7 17
-26 46 -42 64 -19 21 -24 33 -16 34 8 1 3 5 -11 9 -14 5 -18 8 -9 9 20 1 31
35 16 50 -6 6 -19 11 -28 11 -9 0 -22 7 -29 15 -11 14 -10 14 16 5 16 -6 39
-21 51 -32z m-1472 21 c10 -15 -1 -23 -20 -15 -9 3 -13 10 -10 16 8 13 22 13
30 -1z m148 0 c12 -6 30 -21 39 -33 19 -22 24 -56 9 -56 -18 0 -106 67 -109
83 -4 20 28 23 61 6z m1264 -32 c3 -5 1 -7 -5 -3 -6 3 -13 2 -17 -4 -7 -12
-45 -14 -45 -2 0 14 10 20 36 20 13 0 27 -5 31 -11z m-1382 -16 c8 -14 -13
-24 -33 -16 -14 5 -14 7 -2 15 19 12 27 12 35 1z m50 -11 c-3 -5 -13 -10 -21
-10 -8 0 -12 5 -9 10 3 6 13 10 21 10 8 0 12 -4 9 -10z m-5 -28 c0 -26 -61
-44 -75 -22 -3 6 5 10 19 10 14 0 28 5 31 10 7 12 25 13 25 2z m-40 -82 c0 -5
-4 -10 -9 -10 -6 0 -13 5 -16 10 -3 6 1 10 9 10 9 0 16 -4 16 -10z m1038 5
c13 -3 20 -10 17 -15 -3 -6 1 -7 10 -4 11 4 29 -5 51 -27 39 -38 42 -49 14
-49 -11 0 -23 -7 -27 -16 -3 -8 -27 -25 -52 -38 -48 -23 -77 -24 -64 -3 4 7
-2 5 -13 -3 -29 -22 -30 -24 -12 -17 10 3 20 2 23 -4 6 -9 -62 -45 -77 -41 -5
1 -8 -2 -8 -6 0 -4 -13 -16 -30 -25 -16 -10 -30 -14 -30 -8 0 6 -7 8 -16 4
-10 -3 -12 -8 -5 -12 6 -4 2 -12 -10 -20 -15 -9 -19 -9 -14 0 5 7 3 10 -6 7
-8 -3 -14 -9 -14 -14 0 -17 -16 -34 -26 -29 -5 4 -12 0 -15 -9 -7 -18 -80 -67
-88 -59 -9 10 26 62 39 57 6 -3 18 2 25 11 8 10 9 15 1 15 -6 0 -11 -5 -11
-12 0 -6 -2 -9 -5 -6 -9 9 36 79 46 72 5 -3 8 -2 7 3 -1 4 10 26 26 48 22 32
27 35 22 15 l-6 -25 13 25 c23 48 45 72 58 65 8 -5 10 -4 5 3 -4 7 -2 12 3 12
6 0 10 4 9 9 -5 16 89 96 114 99 13 1 33 0 46 -3z m-953 -55 c-3 -5 -10 -10
-16 -10 -5 0 -9 5 -9 10 0 6 7 10 16 10 8 0 12 -4 9 -10z m13 -48 c-3 -10 1
-27 8 -37 19 -26 18 -30 -11 -43 -27 -13 -45 2 -19 16 13 7 14 12 3 29 -13 22
-7 53 12 53 6 0 9 -8 7 -18z m-655 -20 c9 -9 21 -38 28 -64 19 -71 5 -92 -77
-117 -36 -12 -74 -21 -84 -21 -25 0 -58 44 -66 86 -9 47 14 79 67 92 54 14 79
2 79 -37 0 -39 -23 -57 -55 -43 -14 7 -25 16 -25 22 0 15 -30 12 -31 -2 -3
-28 3 -54 15 -66 10 -11 24 -10 75 4 34 10 66 25 70 33 12 23 -6 79 -29 91
-11 6 -20 17 -20 25 0 21 34 19 53 -3z m3283 -13 c49 -13 51 -17 27 -62 -9
-18 -24 -57 -33 -87 l-16 -55 -27 27 c-31 31 -33 53 -12 106 10 24 12 38 5 40
-13 5 -13 42 1 42 5 0 30 -5 55 -11z m-1536 -24 c27 -13 51 -29 55 -35 10 -15
-60 -12 -102 5 -42 18 -74 19 -70 4 1 -6 -15 -13 -35 -15 -21 -3 -38 -2 -38 1
0 7 112 64 128 65 7 0 35 -11 62 -25z m1633 -47 c-28 -55 -18 -71 13 -20 30
50 41 54 99 36 59 -17 75 -30 75 -59 0 -54 -69 -61 -84 -8 -13 41 -42 49 -61
17 -8 -13 -22 -35 -30 -49 -13 -21 -19 -24 -35 -15 -28 15 -35 55 -17 98 8 20
18 46 22 56 5 18 7 18 22 3 16 -16 16 -20 -4 -59z m-2676 25 c-4 -3 -2 -12 4
-19 12 -15 3 -74 -12 -74 -5 0 -9 23 -9 50 0 31 4 50 12 50 6 0 8 -3 5 -7z
m1301 -28 c-3 -3 -9 2 -12 12 -6 14 -5 15 5 6 7 -7 10 -15 7 -18z m-203 -20
c74 -12 54 -20 -56 -22 -67 -2 -109 1 -109 7 0 6 -29 10 -65 10 -36 0 -65 4
-65 9 0 10 227 7 295 -4z m-212 -37 c13 -7 67 -12 127 -13 183 -3 175 -1 195
-39 17 -31 17 -40 6 -90 -10 -47 -16 -56 -34 -56 -29 0 -118 -42 -136 -63 -12
-15 -9 -17 33 -17 32 0 46 -4 46 -14 0 -24 -26 -36 -79 -37 -59 -2 -65 -21
-10 -29 l34 -6 -46 -17 c-45 -18 -45 -18 -168 14 -111 28 -132 31 -215 25
-228 -17 -296 -16 -349 4 -36 14 -55 16 -69 9 -11 -6 -57 -7 -118 -3 -95 7
-100 8 -131 40 -18 19 -30 37 -26 41 12 11 272 7 294 -6 31 -16 243 -14 282 2
17 7 29 16 26 19 -3 3 10 8 30 10 48 5 44 -22 -4 -35 -26 -6 -31 -11 -20 -18
19 -12 76 -11 84 1 3 6 32 10 63 11 l57 1 -50 15 c-82 23 -97 33 -50 32 22 -1
56 0 75 0 34 2 34 2 15 17 -15 12 -34 14 -77 9 -40 -5 -58 -3 -58 4 0 7 -23
11 -60 11 -33 0 -60 -4 -60 -10 0 -5 -8 -10 -17 -10 -14 0 -13 4 6 22 19 17
39 22 100 25 81 5 99 10 63 20 -12 3 -22 11 -22 18 0 8 -10 15 -22 17 -21 3
-20 5 12 25 30 18 50 22 125 22 59 0 92 -4 97 -12 13 -21 348 -28 348 -8 0 5
-33 11 -74 14 -41 3 -84 10 -95 17 -14 7 -21 7 -21 0 0 -5 -20 -10 -45 -10
-33 0 -51 6 -66 21 -18 18 -29 21 -69 16 -56 -7 -99 1 -78 14 20 13 126 11
151 -3z m1813 -82 c48 -21 84 -43 90 -56 21 -40 -21 -132 -63 -138 -10 -2 -40
6 -65 17 -40 17 -48 18 -59 5 -15 -18 -53 -18 -69 1 -18 21 -4 64 23 70 14 4
48 -5 90 -24 37 -17 73 -28 81 -25 13 5 36 46 36 65 0 6 -38 28 -85 50 -81 37
-94 47 -78 62 10 11 14 9 99 -27z m-3416 5 c0 -5 -9 -30 -21 -56 -11 -25 -19
-48 -17 -49 1 -2 18 3 36 10 20 9 32 21 32 33 0 37 12 51 41 51 21 0 32 -7 40
-24 18 -38 0 -55 -99 -96 -80 -34 -93 -37 -100 -23 -13 23 47 163 71 163 9 0
17 -4 17 -9z m1196 -79 c-18 -16 -18 -16 -6 6 6 13 14 21 18 18 3 -4 -2 -14
-12 -24z m2418 -7 c20 -8 36 -17 36 -19 0 -18 -14 -34 -27 -29 -8 3 -25 0 -38
-7 -20 -11 -27 -11 -40 0 -18 15 -20 41 -3 58 16 16 28 15 72 -3z m-3448 -79
c27 -27 34 -42 34 -74 0 -35 -5 -45 -32 -65 -45 -34 -134 -78 -142 -70 -16 16
-1 34 52 63 100 56 108 70 69 116 -19 22 -29 26 -50 20 -15 -3 -27 -11 -27
-17 0 -6 4 -8 9 -5 5 4 21 2 35 -4 29 -11 36 -49 12 -69 -18 -15 -56 2 -56 24
0 19 -7 19 -60 0 -23 -8 -46 -12 -51 -9 -12 7 -11 34 1 34 5 0 27 15 47 33 77
68 109 73 159 23z m1754 2 c-19 -18 -35 -26 -47 -22 -13 4 -15 3 -4 -4 25 -18
-4 -19 -34 -1 l-29 18 39 17 c27 11 40 13 43 5 2 -7 8 -6 17 2 7 8 20 14 28
14 10 0 6 -9 -13 -29z m-1607 0 c23 -13 44 -24 46 -26 3 -1 -1 -8 -7 -14 -10
-10 -17 -10 -33 0 -18 11 -23 11 -33 -3 -18 -25 -60 -16 -64 13 -4 26 13 52
35 52 8 0 33 -10 56 -22z m3027 -84 c92 -57 85 -51 70 -69 -11 -13 -17 -11
-56 11 -51 30 -70 29 -92 -8 -13 -22 -14 -29 -2 -42 12 -15 14 -15 31 0 12 11
27 14 44 10 33 -8 35 -58 4 -80 -20 -13 -25 -13 -53 1 -17 8 -39 22 -48 31
-31 27 -19 99 21 129 14 10 14 12 -3 19 -30 11 -70 -40 -63 -81 3 -17 1 -38
-4 -46 -7 -11 -11 -10 -23 6 -19 25 -20 47 -2 89 15 36 60 76 85 76 9 0 50
-21 91 -46z m-3051 -109 c33 -38 40 -79 19 -107 -7 -9 -42 -38 -77 -63 -55
-41 -65 -45 -78 -32 -13 12 -5 21 56 66 75 56 88 83 55 115 -23 24 -43 20 -36
-6 4 -18 2 -20 -18 -15 -17 4 -36 -3 -72 -29 -46 -34 -68 -37 -68 -10 0 16 83
76 105 76 11 0 15 5 12 14 -8 20 1 26 39 26 24 0 39 -9 63 -35z m2851 -21 c0
-7 13 -20 30 -29 91 -47 122 -107 80 -153 -30 -32 -66 -28 -106 12 -19 19 -34
28 -34 20 0 -7 -11 -21 -25 -30 -23 -15 -27 -15 -50 0 -50 33 -16 126 45 126
23 0 35 -9 58 -42 16 -24 39 -51 50 -61 18 -17 21 -17 36 -2 9 9 16 20 16 24
0 13 -83 71 -102 71 -10 0 -18 7 -18 17 0 9 -7 25 -16 35 -14 14 -14 20 -4 33
10 12 16 13 26 4 8 -6 14 -18 14 -25z m-1567 -58 c4 -11 0 -11 -18 -2 -13 6
-21 14 -19 18 6 10 31 -1 37 -16z m-1159 -77 c41 -48 35 -73 -35 -137 -75 -70
-84 -75 -98 -58 -10 11 1 25 54 72 36 32 65 65 65 75 0 23 -28 44 -55 41 -25
-3 -40 12 -30 28 3 6 21 10 40 10 25 0 40 -8 59 -31z m2376 -97 c0 -71 -101
-132 -134 -79 -22 34 38 77 67 48 6 -6 14 -11 18 -11 12 0 18 42 9 65 -6 15
-4 27 3 34 17 17 37 -14 37 -57z m286 -14 c58 -55 63 -63 49 -77 -13 -14 -21
-9 -74 43 -48 47 -63 57 -87 54 -36 -4 -65 -49 -48 -75 17 -27 74 -58 74 -41
0 7 -13 19 -30 25 -33 12 -38 33 -14 57 38 38 65 12 80 -76 16 -93 6 -110 -41
-70 -18 15 -46 35 -64 44 -62 34 -61 120 3 159 54 33 81 26 152 -43z m-2515
-38 c26 -27 50 -50 55 -50 13 0 44 -32 44 -45 0 -7 -20 -42 -45 -78 -25 -37
-45 -69 -45 -73 0 -17 35 -44 56 -44 18 0 35 17 71 70 27 38 50 69 53 69 3 1
11 -3 19 -8 16 -10 10 -21 -61 -118 -33 -46 -43 -53 -73 -53 -39 0 -105 54
-105 87 0 11 14 39 30 62 29 39 30 43 15 64 -19 27 -19 32 1 51 14 15 14 16
-3 16 -10 0 -32 17 -50 37 -39 48 -51 40 -17 -11 32 -47 27 -69 -25 -120 -37
-36 -43 -38 -66 -28 -55 25 -42 77 20 77 58 0 67 24 28 79 -35 49 -30 66 21
66 23 0 41 -12 77 -50z m2314 -84 c23 -25 50 -61 60 -80 19 -36 19 -36 -2 -57
-42 -42 -100 -1 -68 47 15 23 14 26 -19 61 -34 37 -36 38 -63 23 -21 -12 -29
-24 -31 -52 -4 -45 -29 -59 -38 -21 -10 38 7 74 45 100 48 33 69 29 116 -21z
m-1985 -11 c16 -8 34 -24 40 -34 10 -20 14 -91 5 -91 -3 0 -26 16 -52 36 -27
21 -63 43 -82 51 -32 14 -32 15 -15 34 21 23 64 25 104 4z m1810 -85 c3 -14
22 -51 43 -83 20 -31 37 -61 37 -66 0 -8 -31 -25 -35 -19 -1 2 -15 27 -31 55
-16 29 -32 53 -36 53 -5 0 -8 -35 -8 -79 0 -59 -4 -82 -16 -92 -18 -14 -16
-16 -62 63 -22 40 -30 46 -49 41 -43 -10 -72 44 -41 75 31 31 68 10 104 -58
l19 -35 3 35 c2 19 -2 52 -9 72 -15 48 0 70 45 66 24 -2 32 -9 36 -28z m-390
-33 c0 -40 -20 -71 -59 -86 -59 -25 -121 5 -95 47 17 26 55 28 74 2 14 -19 18
-20 29 -7 6 9 14 28 15 44 5 35 3 33 21 33 10 0 15 -10 15 -33z m-1431 -8 c13
-11 30 -19 37 -19 7 0 17 -6 21 -14 4 -8 19 -16 32 -18 50 -7 51 -35 6 -142
-7 -15 -1 -13 33 9 23 15 42 35 42 44 0 36 52 55 78 29 17 -17 15 -53 -3 -68
-8 -7 -15 -19 -15 -26 0 -22 -48 -124 -59 -124 -22 0 -22 24 -1 76 13 30 21
57 18 59 -2 3 -32 -15 -66 -40 -91 -66 -107 -58 -72 35 21 56 21 60 5 76 -10
10 -15 27 -12 41 3 16 0 23 -10 23 -9 0 -28 11 -45 25 -51 43 -69 28 -18 -17
37 -32 38 -56 5 -113 -31 -51 -50 -61 -81 -40 -42 27 -28 75 22 75 23 0 37 6
44 19 8 16 3 26 -35 59 l-46 40 27 21 c30 23 53 21 93 -10z m1636 -143 c23
-50 41 -94 38 -98 -8 -15 -49 -8 -115 19 -71 29 -73 30 -60 51 7 10 19 8 57
-8 26 -11 49 -19 51 -17 2 2 -2 18 -8 35 -10 25 -18 32 -38 32 -49 0 -68 47
-29 73 38 27 59 10 104 -87z m-835 4 c0 -33 -3 -40 -20 -40 -17 0 -20 7 -20
40 0 33 3 40 20 40 17 0 20 -7 20 -40z m630 10 c12 -6 27 -37 40 -79 25 -85
25 -108 1 -121 -35 -18 -61 -12 -79 20 -10 18 -23 28 -31 25 -52 -20 -80 49
-31 75 27 14 48 2 70 -39 10 -21 26 -43 34 -50 14 -11 16 -11 16 4 0 37 -35
127 -53 137 -23 12 -73 -7 -88 -33 -13 -24 -39 -25 -39 -1 0 49 107 90 160 62z
m-1042 -30 c38 -24 39 -37 11 -139 -24 -86 -28 -94 -48 -81 -12 7 -11 20 7 88
28 100 27 100 -4 113 -21 7 -31 6 -44 -6 -19 -17 -50 -20 -50 -5 0 20 41 50
68 50 15 0 42 -9 60 -20z m868 -92 c4 -38 10 -68 14 -68 17 0 20 -34 5 -56
-18 -27 -47 -31 -65 -9 -12 14 -15 14 -34 -4 -12 -11 -30 -21 -40 -23 -16 -2
-21 5 -28 42 -16 85 -18 90 -36 90 -24 0 -42 19 -42 45 0 27 18 45 46 45 30 0
40 -16 54 -85 17 -91 16 -89 50 -68 16 9 33 26 36 36 5 16 -1 80 -12 119 -5
19 27 30 38 13 4 -5 10 -40 14 -77z m-673 58 c34 -5 41 -11 32 -25 -8 -14 -46
-14 -80 -1 -47 18 -50 -2 -4 -24 l44 -21 -1 -62 c-1 -67 -14 -93 -48 -93 -28
0 -46 18 -46 45 0 26 18 45 42 45 13 0 18 8 18 25 0 21 -9 29 -47 46 -26 11
-49 22 -52 24 -2 3 4 16 14 31 15 23 21 25 58 20 23 -3 55 -8 70 -10z m237 -9
c0 -8 -3 -17 -7 -21 -4 -4 -6 -40 -4 -81 4 -94 -5 -137 -27 -133 -14 3 -16 13
-14 54 4 59 -10 77 -60 72 -39 -4 -49 -29 -16 -43 32 -14 36 -60 7 -75 -16 -9
-28 -9 -45 -1 -20 9 -24 18 -24 59 0 26 7 57 15 69 19 26 63 37 98 24 23 -9
27 -8 27 8 0 33 -75 44 -104 16 -18 -19 -46 -20 -46 -2 0 32 40 52 101 50 32
0 59 3 59 8 0 5 9 9 20 9 11 0 20 -6 20 -13z m182 -27 c12 -15 18 -40 18 -74
0 -28 3 -61 6 -73 4 -14 -1 -28 -15 -42 -25 -25 -44 -27 -66 -5 -22 22 -15 57
13 69 18 8 22 18 22 56 0 50 -9 59 -56 59 -14 0 -30 -10 -40 -25 -21 -32 -44
-32 -44 -2 0 24 21 49 50 60 30 12 94 -1 112 -23z"/>
<path d="M2005 3636 c-160 -31 -186 -38 -205 -59 -18 -19 -19 -23 -5 -43 20
-32 19 -37 -7 -23 -12 6 -51 12 -87 13 -52 0 -78 -5 -125 -27 -71 -33 -174
-108 -240 -175 l-48 -50 29 -16 c17 -8 77 -34 134 -56 57 -23 145 -59 194 -80
126 -54 195 -80 195 -76 0 2 -87 49 -192 104 -106 55 -213 111 -237 125 l-43
25 52 41 c79 62 138 95 153 84 6 -6 81 -66 166 -134 221 -179 222 -179 43 3
-134 135 -160 166 -144 170 10 3 30 -3 43 -13 13 -10 41 -19 62 -19 30 0 37 4
37 20 0 53 81 -4 165 -115 39 -51 71 -92 73 -90 2 2 -13 28 -32 58 -20 31 -36
58 -36 60 0 3 -25 47 -55 98 l-55 94 42 12 c23 7 63 16 89 19 l47 6 61 -153
c34 -85 60 -140 57 -124 -3 17 -17 82 -31 145 -35 162 -39 150 54 150 93 0 86
11 97 -155 3 -60 10 -116 14 -124 4 -7 10 38 14 100 4 63 9 129 13 148 l6 34
70 -6 c38 -3 72 -9 75 -12 3 -3 -7 -62 -22 -131 -15 -69 -26 -128 -24 -130 2
-2 26 53 53 121 38 95 54 125 67 125 36 0 140 -34 145 -48 3 -7 -8 -26 -26
-42 -18 -17 -31 -39 -31 -52 0 -13 -6 -32 -13 -43 -8 -11 -26 -42 -41 -70
l-27 -50 25 30 c14 17 47 59 73 94 50 68 75 87 66 52 -5 -18 -1 -21 32 -21 20
0 49 7 65 16 19 12 38 15 64 10 20 -4 36 -10 35 -14 0 -4 -56 -59 -123 -122
-68 -63 -126 -120 -129 -127 -3 -6 62 40 145 103 83 63 156 114 162 114 21 0
157 -100 151 -110 -3 -4 -88 -54 -190 -111 -101 -56 -183 -104 -181 -107 2 -2
19 4 37 14 33 17 168 74 332 141 48 19 87 39 87 43 0 13 -147 138 -208 178
-76 48 -157 75 -206 69 -27 -4 -44 -1 -54 10 -13 12 -13 16 -1 23 18 12 -18
25 -151 57 -87 20 -137 25 -295 28 -133 3 -211 1 -260 -9z"/>
<path d="M3147 3231 c-15 -5 -11 -10 23 -25 47 -21 147 -114 134 -125 -5 -5
-111 -30 -236 -57 -125 -26 -226 -50 -223 -52 4 -4 212 23 410 53 88 13 90 13
107 -8 16 -20 138 -220 146 -239 2 -4 -16 -5 -40 -2 -51 5 -669 44 -683 43
-10 -1 305 -46 525 -74 203 -27 191 -22 223 -86 40 -79 65 -219 73 -399 7
-152 13 -180 40 -180 11 0 14 28 14 143 0 225 -42 435 -100 501 -38 43 -38 50
1 42 l31 -6 -23 38 c-50 82 -183 273 -235 336 -70 85 -134 118 -187 97z"/>
<path d="M2213 3031 c-81 -37 -130 -144 -103 -226 14 -44 62 -100 101 -121 63
-32 173 -10 226 48 64 69 56 207 -16 266 -32 26 -97 52 -131 52 -19 0 -54 -9
-77 -19z"/>
<path d="M2909 2607 l145 -70 -53 -19 c-30 -10 -69 -29 -87 -43 -18 -14 -35
-25 -39 -25 -3 0 -53 32 -111 70 -57 39 -107 70 -110 70 -2 0 41 -41 96 -92
74 -67 99 -96 94 -107 -4 -9 -16 -43 -28 -76 -11 -33 -22 -62 -24 -65 -2 -3
-15 9 -29 25 -181 216 -203 235 -124 108 102 -163 97 -151 68 -182 -28 -29
-47 -71 -47 -104 0 -16 7 -9 30 26 34 54 82 87 126 87 29 0 32 3 43 48 23 90
83 167 153 196 46 20 130 20 183 1 22 -8 41 -15 41 -15 1 0 5 16 8 35 8 43 46
88 86 105 19 8 56 11 100 8 39 -3 70 -4 70 -2 0 12 -81 34 -127 34 -64 0 -113
-21 -148 -62 -29 -35 -5 -40 -274 58 -96 35 -177 64 -180 63 -3 0 59 -33 138
-72z"/>
<path d="M1665 2590 c-223 -78 -221 -78 -245 -47 -45 57 -144 74 -215 36 -26
-14 -41 -17 -43 -10 -8 25 -102 56 -102 33 0 -4 13 -13 30 -19 19 -7 35 -24
47 -50 10 -21 18 -40 19 -41 2 -2 16 6 32 18 45 34 109 37 152 8 42 -28 78
-96 82 -158 4 -45 4 -45 47 -51 72 -10 82 -43 55 -190 -5 -31 -3 -37 15 -42
13 -3 27 -19 34 -36 9 -24 17 -31 38 -31 16 0 33 -9 43 -22 l17 -23 -6 30 c-3
17 -17 38 -31 48 -13 10 -24 25 -24 33 0 8 -9 23 -20 34 -18 18 -19 24 -8 71
8 35 21 58 42 76 28 23 149 134 281 258 l50 47 -70 -48 c-38 -27 -119 -84
-179 -127 l-110 -77 -27 26 c-20 19 -39 26 -70 27 -24 1 -43 5 -41 10 1 4 2
25 2 47 l0 40 132 62 c204 97 264 127 253 127 -5 0 -86 -27 -180 -59z"/>
<path d="M3280 2368 c-10 -4 -26 -18 -36 -32 -9 -15 -26 -26 -39 -26 -12 0
-28 -6 -34 -14 -8 -10 -23 -11 -63 -4 -68 10 -131 1 -164 -25 -24 -19 -26 -25
-21 -78 3 -40 1 -63 -9 -76 -15 -20 -19 -89 -5 -98 5 -3 9 8 9 25 -1 32 26 70
50 70 10 0 12 6 7 23 -31 97 -7 122 120 123 44 0 86 4 93 8 8 4 29 8 48 8 25
0 34 4 34 17 0 33 30 61 64 61 19 0 45 6 60 13 24 13 22 14 -35 13 -33 0 -68
-4 -79 -8z"/>
<path d="M3171 2173 c-19 -13 -45 -23 -57 -23 -13 0 -24 -4 -24 -10 0 -5 14
-10 30 -10 l30 0 -23 -37 c-42 -69 -79 -163 -95 -246 -9 -45 -17 -83 -17 -84
0 -1 -18 2 -39 7 -40 9 -66 4 -66 -11 0 -5 23 -9 50 -9 54 0 56 -1 38 -30 -25
-39 33 -58 182 -60 68 -1 81 -4 63 -12 -15 -7 -61 -8 -150 -1 -70 6 -130 9
-132 7 -12 -11 17 -18 89 -22 44 -2 80 -8 80 -13 0 -13 71 -11 111 2 19 7 43
20 55 30 11 11 30 19 43 19 20 0 21 -1 7 -16 -9 -8 -16 -17 -16 -19 0 -5 44 2
90 12 24 5 23 6 -10 15 l-35 10 50 22 c49 22 49 23 27 35 -13 7 -42 14 -65 15
-39 2 -45 6 -83 63 -56 83 -85 175 -93 293 l-6 96 -34 -23z m-13 -192 c0 -108
15 -241 27 -241 1 0 0 66 -2 148 -3 87 -1 161 5 182 l10 35 1 -34 c2 -85 58
-228 122 -315 l30 -41 -28 -6 c-39 -9 -158 -10 -233 -2 l-63 6 6 67 c7 79 46
204 88 278 17 28 32 52 34 52 2 0 3 -58 3 -129z"/>
<path d="M3557 2063 c-3 -14 2 -53 10 -85 17 -68 11 -107 -36 -218 -26 -61
-26 -67 -12 -92 9 -16 19 -28 22 -28 11 0 58 157 83 277 23 108 23 113 5 118
-10 4 -27 17 -38 31 -24 30 -27 30 -34 -3z"/>
<path d="M1425 1780 c-10 -16 70 -16 109 0 15 6 3 9 -41 9 -34 1 -65 -3 -68
-9z"/>
<path d="M2321 1764 c0 -12 6 -27 14 -34 13 -10 15 -9 15 11 0 18 -3 20 -9 10
-7 -11 -10 -9 -14 10 -4 21 -4 22 -6 3z"/>
<path d="M2756 1761 c-31 -12 -3 -22 58 -20 39 2 56 6 56 16 0 14 -80 18 -114
4z"/>
<path d="M1417 1743 c-16 -16 -4 -24 30 -21 48 4 57 28 11 28 -19 0 -38 -3
-41 -7z"/>
<path d="M2362 1710 c0 -14 2 -19 5 -12 2 6 2 18 0 25 -3 6 -5 1 -5 -13z"/>
<path d="M1486 1681 c-3 -5 1 -12 10 -15 35 -13 208 0 198 15 -7 12 -201 12
-208 0z"/>
<path d="M3467 1610 c-10 -28 -43 -87 -73 -131 -50 -74 -67 -123 -47 -142 7
-8 110 129 142 189 21 39 25 71 15 112 -9 33 -17 27 -37 -28z"/>
<path d="M2746 1631 c30 -13 273 -25 253 -12 -9 6 -74 13 -145 16 -83 4 -122
2 -108 -4z"/>
<path d="M2765 1590 c-4 -6 12 -10 39 -10 25 0 46 5 46 10 0 6 -18 10 -39 10
-22 0 -43 -4 -46 -10z"/>
<path d="M3039 1586 c-3 -3 -43 -7 -88 -7 -102 -2 -119 -19 -19 -19 61 -1 70
-3 53 -13 -13 -8 -64 -11 -155 -10 -86 2 -128 -1 -115 -7 11 -5 43 -9 71 -9
28 -1 75 -6 105 -12 45 -9 62 -8 92 5 20 8 37 21 37 28 0 10 21 13 80 13 45 0
84 5 90 11 9 9 0 11 -32 11 -24 0 -59 3 -78 7 -19 4 -38 5 -41 2z"/>
<path d="M3252 1577 c5 -14 59 -21 105 -12 54 10 38 20 -38 22 -52 2 -70 0
-67 -10z"/>
<path d="M3170 1525 c0 -11 12 -15 53 -15 60 0 97 8 97 21 0 5 -34 9 -75 9
-60 0 -75 -3 -75 -15z"/>
<path d="M3033 1405 c-18 -20 -18 -20 32 -20 47 0 52 4 33 23 -16 16 -50 15
-65 -3z"/>
<path d="M3305 1379 c-4 -12 -24 -40 -45 -63 -28 -31 -39 -51 -42 -83 -2 -24
-1 -43 3 -43 4 0 31 26 61 58 50 55 54 62 50 100 -5 48 -17 62 -27 31z"/>
<path d="M3231 1370 c-20 -17 -40 -20 -150 -21 -102 -2 -115 -3 -71 -9 77 -11
242 -1 259 15 13 12 8 35 -7 35 -4 -1 -18 -10 -31 -20z"/>
<path d="M2575 1339 c4 -5 12 -9 20 -9 8 0 18 -6 22 -14 6 -11 22 -12 78 -4
39 4 81 6 95 3 24 -6 24 -5 8 11 -14 14 -38 18 -123 20 -63 2 -103 -1 -100 -7z"/>
<path d="M2834 1278 c-2 -3 24 -9 58 -12 35 -3 84 -8 109 -11 44 -7 129 9 129
23 0 9 -290 9 -296 0z"/>
<path d="M3171 1242 c-33 -44 -142 -131 -244 -195 -81 -51 -93 -62 -98 -93 -3
-19 -2 -34 4 -34 24 0 151 77 224 135 114 91 143 127 143 175 0 22 -2 40 -4
40 -1 0 -13 -13 -25 -28z"/>
<path d="M1230 1240 c0 -44 31 -90 97 -145 105 -88 240 -175 271 -175 4 0 6
15 4 34 -4 31 -13 39 -99 92 -53 33 -133 94 -178 137 -46 42 -85 77 -89 77 -3
0 -6 -9 -6 -20z"/>
<path d="M2616 1241 c-34 -13 -1 -21 48 -12 26 5 50 11 53 15 9 9 -78 6 -101
-3z"/>
<path d="M2848 1223 c-20 -5 -25 -23 -6 -23 6 0 8 -3 5 -6 -4 -4 -20 -1 -37 6
-23 10 -34 10 -42 2 -7 -7 -9 -15 -5 -19 13 -12 171 -5 212 10 l40 14 -30 6
c-49 10 -119 15 -137 10z"/>
<path d="M1335 1200 c7 -12 82 -12 110 0 14 6 -1 9 -48 9 -43 1 -66 -3 -62 -9z"/>
<path d="M2610 1170 c-11 -7 0 -10 38 -10 33 0 51 4 47 10 -8 13 -65 13 -85 0z"/>
<path d="M2520 1151 c15 -30 2 -50 -44 -63 l-41 -13 39 -3 c48 -4 80 3 100 24
23 23 20 38 -13 57 -40 23 -55 22 -41 -2z"/>
<path d="M1465 1150 c-3 -5 -3 -11 2 -12 23 -5 153 -2 153 3 0 18 -144 26
-155 9z"/>
<path d="M2653 1097 c-29 -5 -53 -14 -53 -18 0 -10 93 -12 128 -3 27 8 24 28
-4 30 -10 1 -43 -3 -71 -9z"/>
<path d="M1483 1088 c19 -10 126 -28 168 -28 46 0 139 19 139 28 0 4 -72 7
-159 7 -88 0 -154 -3 -148 -7z"/>
<path d="M1928 1055 c-17 -18 8 -25 85 -25 55 1 77 4 66 10 -21 12 -142 24
-151 15z"/>
<path d="M1803 1032 c10 -10 17 -31 17 -46 0 -15 5 -36 10 -47 9 -15 7 -19 -7
-19 -32 1 -106 40 -149 80 -24 22 -50 40 -59 40 -17 0 -20 -16 -5 -25 6 -3 10
-21 10 -40 0 -51 9 -64 59 -89 80 -40 231 -85 231 -69 0 4 -15 22 -32 41 l-33
35 44 -32 c54 -38 128 -61 195 -60 l51 0 -52 14 c-81 22 -173 73 -173 95 0 4
9 10 20 13 14 4 20 14 20 35 0 26 -3 29 -25 25 -18 -4 -32 3 -58 31 -20 21
-44 36 -57 36 -22 0 -22 -1 -7 -18z m-117 -73 c26 -29 68 -49 101 -49 21 0 33
-8 47 -30 l18 -31 -29 7 c-106 26 -192 77 -180 107 8 23 20 21 43 -4z"/>
<path d="M2552 1014 c-29 -29 -41 -35 -65 -30 -26 5 -28 4 -25 -22 2 -17 12
-31 26 -37 12 -5 21 -14 19 -20 -6 -19 -96 -68 -159 -87 l-63 -18 73 5 c134
10 220 72 238 170 3 22 13 48 22 58 14 16 13 17 -7 17 -13 0 -39 -16 -59 -36z"/>
<path d="M2332 1028 c6 -16 59 -22 118 -12 44 7 44 8 15 15 -54 12 -137 10
-133 -3z"/>
<path d="M2788 1026 c-15 -8 -40 -26 -55 -41 -34 -32 -68 -50 -110 -60 -18 -3
-33 -10 -33 -13 0 -4 -18 -26 -39 -50 -21 -23 -36 -44 -32 -47 12 -7 119 24
198 56 75 32 89 49 92 113 0 16 6 35 12 42 15 18 1 18 -33 0z m-6 -58 c8 -21
-2 -36 -35 -57 -35 -21 -158 -64 -164 -57 -3 2 3 16 12 30 13 20 26 26 51 26
25 0 44 9 72 35 39 37 57 43 64 23z"/>
<path d="M2645 1020 c-15 -6 -7 -9 30 -9 36 -1 46 2 35 9 -18 12 -38 12 -65 0z"/>
<path d="M210 2722 c0 -22 4 -43 9 -46 5 -4 7 12 4 36 -8 57 -13 61 -13 10z"/>
<path d="M240 2650 c0 -5 4 -10 9 -10 6 0 13 5 16 10 3 6 -1 10 -9 10 -9 0
-16 -4 -16 -10z"/>
<path d="M321 2294 c0 -11 3 -14 6 -6 3 7 2 16 -1 19 -3 4 -6 -2 -5 -13z"/>
<path d="M300 2253 c0 -4 8 -17 16 -28 15 -20 16 -20 12 4 -3 22 -28 44 -28
24z"/>
<path d="M4226 2704 c-4 -20 -5 -38 -2 -41 2 -3 8 11 12 31 3 21 4 39 1 42 -2
3 -8 -11 -11 -32z"/>
<path d="M4165 2680 c3 -5 8 -10 11 -10 2 0 4 5 4 10 0 6 -5 10 -11 10 -5 0
-7 -4 -4 -10z"/>
<path d="M4188 2643 c7 -3 16 -2 19 1 4 3 -2 6 -13 5 -11 0 -14 -3 -6 -6z"/>
<path d="M4121 2241 c-8 -5 -11 -16 -7 -27 6 -16 7 -16 21 2 24 31 17 44 -14
25z"/>
<path d="M2271 2374 c0 -11 3 -14 6 -6 3 7 2 16 -1 19 -3 4 -6 -2 -5 -13z"/>
<path d="M2241 2370 c3 -24 -13 -80 -23 -80 -5 0 -6 -5 -3 -10 10 -16 35 8 29
25 -3 8 -1 22 5 32 10 15 10 14 5 -8 -3 -15 -1 -29 4 -33 15 -9 11 47 -5 69
-10 13 -14 15 -12 5z"/>
<path d="M2275 2230 c8 -77 10 -89 20 -97 8 -8 2 34 -10 72 -7 20 -6 20 9 1
21 -26 19 -10 -5 39 l-19 40 5 -55z"/>
<path d="M1931 2179 c8 -5 6 -9 -7 -12 -10 -2 -6 -3 10 -1 16 2 47 4 69 4 59
0 40 9 -27 13 -31 2 -51 0 -45 -4z"/>
<path d="M1840 2155 c-7 -9 -8 -15 -2 -15 5 0 12 7 16 15 3 8 4 15 2 15 -2 0
-9 -7 -16 -15z"/>
<path d="M2132 2130 c0 -14 2 -19 5 -12 2 6 2 18 0 25 -3 6 -5 1 -5 -13z"/>
<path d="M1930 2120 c0 -5 5 -10 11 -10 5 0 7 5 4 10 -3 6 -8 10 -11 10 -2 0
-4 -4 -4 -10z"/>
<path d="M1961 2114 c0 -11 3 -14 6 -6 3 7 2 16 -1 19 -3 4 -6 -2 -5 -13z"/>
<path d="M2020 2120 c0 -13 11 -13 30 0 12 8 11 10 -7 10 -13 0 -23 -4 -23
-10z"/>
<path d="M2098 2123 c6 -2 12 -13 12 -24 0 -10 5 -19 11 -19 6 0 8 7 5 16 -3
9 -6 20 -6 25 0 5 -8 9 -17 8 -11 0 -13 -3 -5 -6z"/>
<path d="M1981 2104 c0 -11 3 -14 6 -6 3 7 2 16 -1 19 -3 4 -6 -2 -5 -13z"/>
<path d="M2000 2106 c0 -9 5 -16 10 -16 6 0 10 4 10 9 0 6 -4 13 -10 16 -5 3
-10 -1 -10 -9z"/>
<path d="M2254 2095 c-4 -18 -13 -25 -30 -25 -13 0 -24 -4 -24 -10 0 -5 18
-10 40 -10 42 0 49 7 28 28 -10 10 -10 15 2 22 9 6 16 6 18 0 6 -16 22 -12 22
5 0 9 -9 15 -25 15 -18 0 -26 -7 -31 -25z"/>
<path d="M1996 2068 c3 -5 10 -6 15 -3 13 9 11 12 -6 12 -8 0 -12 -4 -9 -9z"/>
<path d="M2149 2060 c-9 -5 -26 -11 -38 -13 -27 -4 -39 -17 -15 -17 19 1 97
39 79 39 -5 0 -17 -4 -26 -9z"/>
<path d="M2135 2027 c-15 -12 -16 -15 -2 -20 9 -3 18 1 21 10 9 22 3 25 -19
10z"/>
<path d="M2180 2004 c0 -11 29 -34 44 -34 13 0 12 4 -4 20 -19 19 -40 27 -40
14z"/>
<path d="M2349 1975 c4 -17 6 -18 9 -2 4 18 22 24 22 7 0 -5 5 -10 11 -10 8 0
8 4 0 14 -19 23 -49 16 -42 -9z"/>
<path d="M2266 1975 c21 -16 44 -19 44 -6 0 5 -10 11 -22 15 -37 9 -43 7 -22
-9z"/>
<path d="M2318 1913 c6 -2 18 -2 25 0 6 3 1 5 -13 5 -14 0 -19 -2 -12 -5z"/>
<path d="M2455 1910 c3 -5 8 -10 11 -10 2 0 4 5 4 10 0 6 -5 10 -11 10 -5 0
-7 -4 -4 -10z"/>
<path d="M2338 1893 c6 -2 12 -9 12 -14 0 -6 -6 -7 -12 -3 -10 6 -9 3 0 -8 8
-9 20 -14 29 -11 12 5 12 7 1 14 -10 7 -10 9 2 9 13 0 13 1 0 10 -8 5 -22 9
-30 9 -10 0 -11 -2 -2 -6z"/>
<path d="M2490 1832 c6 -12 8 -28 4 -34 -4 -7 -3 -8 4 -4 7 4 12 2 12 -4 0 -6
5 -8 10 -5 6 3 10 11 10 16 0 6 -5 7 -12 3 -8 -5 -9 -2 -4 12 4 10 4 15 0 11
-4 -4 -13 1 -21 11 -13 15 -13 15 -3 -6z"/>
<path d="M2405 1811 c-3 -5 -2 -12 3 -15 5 -3 9 1 9 9 0 17 -3 19 -12 6z"/>
<path d="M2520 1753 c0 -12 5 -25 10 -28 13 -8 13 15 0 35 -8 12 -10 11 -10
-7z"/>
<path d="M2503 1684 c-6 -13 -7 -24 -3 -24 9 0 25 39 18 45 -2 2 -8 -7 -15
-21z"/>
<path d="M2510 1640 c0 -8 4 -21 9 -28 6 -10 10 -8 14 9 4 13 4 25 2 28 -3 2
-5 -2 -5 -10 0 -11 -2 -11 -10 1 -9 13 -10 13 -10 0z"/>
<path d="M2486 1523 c-6 -14 -5 -15 5 -6 7 7 10 15 7 18 -3 3 -9 -2 -12 -12z"/>
<path d="M2502 1978 c-7 -7 -12 -17 -12 -22 0 -6 5 -3 11 7 9 15 13 16 27 5
15 -12 16 -11 3 5 -16 20 -14 20 -29 5z"/>
<path d="M2620 1815 c0 -5 5 -17 10 -25 5 -8 10 -10 10 -5 0 6 -5 17 -10 25
-5 8 -10 11 -10 5z"/>
<path d="M2605 1780 c3 -5 8 -10 11 -10 2 0 4 5 4 10 0 6 -5 10 -11 10 -5 0
-7 -4 -4 -10z"/>
<path d="M2600 1744 c0 -8 5 -12 10 -9 6 3 10 10 10 16 0 5 -4 9 -10 9 -5 0
-10 -7 -10 -16z"/>
<path d="M2595 1700 c3 -5 11 -10 16 -10 6 0 7 5 4 10 -3 6 -11 10 -16 10 -6
0 -7 -4 -4 -10z"/>
<path d="M2620 1614 c0 -8 5 -12 10 -9 6 3 10 10 10 16 0 5 -4 9 -10 9 -5 0
-10 -7 -10 -16z"/>
<path d="M2550 1544 c-19 -51 -19 -54 -15 -54 8 0 36 73 30 78 -2 3 -9 -8 -15
-24z"/>
<path d="M2561 1494 c-1 -15 28 -39 36 -30 3 3 1 6 -6 6 -7 0 -9 5 -5 12 4 6
3 8 -4 4 -5 -3 -13 0 -15 6 -4 8 -6 9 -6 2z"/>
<path d="M2530 1448 c0 -4 6 -8 14 -8 8 0 17 4 20 8 2 4 -4 8 -15 8 -10 0 -19
-4 -19 -8z"/>
<path d="M2456 1386 c6 -16 4 -18 -11 -12 -18 7 -18 6 0 -14 14 -15 15 -19 4
-15 -9 3 -21 -1 -28 -8 -9 -12 -8 -16 4 -21 9 -3 13 -2 10 3 -3 5 -1 12 5 16
5 3 10 0 10 -7 0 -7 6 -4 12 7 6 11 14 22 18 25 4 3 -2 14 -12 25 -18 19 -19
19 -12 1z"/>
<path d="M2330 1282 c0 -5 7 -9 15 -9 8 0 15 4 15 9 0 4 -7 8 -15 8 -8 0 -15
-4 -15 -8z"/>
<path d="M2436 1273 c-6 -14 -5 -15 5 -6 7 7 10 15 7 18 -3 3 -9 -2 -12 -12z"/>
<path d="M2287 1265 c-13 -10 -15 -15 -5 -22 15 -12 54 -11 65 2 5 4 3 5 -4 1
-6 -3 -18 2 -25 13 -11 16 -16 17 -31 6z m23 -15 c0 -5 -2 -10 -4 -10 -3 0 -8
5 -11 10 -3 6 -1 10 4 10 6 0 11 -4 11 -10z"/>
<path d="M1875 1240 c3 -5 13 -10 21 -10 8 0 12 5 9 10 -3 6 -13 10 -21 10 -8
0 -12 -4 -9 -10z"/>
<path d="M1840 1231 c0 -6 6 -11 13 -11 8 0 7 -4 -3 -11 -13 -9 -13 -10 0 -6
18 5 20 29 3 35 -7 2 -13 -1 -13 -7z"/>
<path d="M2245 1230 c3 -5 8 -10 11 -10 2 0 4 5 4 10 0 6 -5 10 -11 10 -5 0
-7 -4 -4 -10z"/>
<path d="M2050 1209 c0 -5 5 -7 10 -4 6 3 10 8 10 11 0 2 -4 4 -10 4 -5 0 -10
-5 -10 -11z"/>
<path d="M1950 1190 c0 -5 5 -10 10 -10 6 0 10 5 10 10 0 6 -4 10 -10 10 -5 0
-10 -4 -10 -10z"/>
<path d="M2126 1185 c4 -8 10 -15 15 -15 4 0 6 7 3 15 -4 8 -10 15 -15 15 -4
0 -6 -7 -3 -15z"/>
<path d="M2265 1190 c-3 -5 -3 -10 2 -10 4 0 2 -4 -6 -9 -12 -7 -12 -13 -3
-24 7 -7 8 -17 4 -22 -4 -4 3 -2 16 4 22 12 30 31 12 31 -5 0 -7 6 -4 14 6 17
-12 31 -21 16z m20 -48 c-3 -3 -11 0 -18 7 -9 10 -8 11 6 5 10 -3 15 -9 12
-12z"/>
<path d="M1976 1171 c-4 -5 -2 -12 3 -15 5 -4 12 -2 15 3 4 5 2 12 -3 15 -5 4
-12 2 -15 -3z"/>
<path d="M2076 1135 c4 -8 10 -15 15 -15 4 0 6 7 3 15 -4 8 -10 15 -15 15 -4
0 -6 -7 -3 -15z"/>
<path d="M2176 1107 c6 -18 50 -34 61 -23 4 3 -2 6 -12 6 -10 0 -27 8 -37 17
-18 16 -18 16 -12 0z"/>
<path d="M2140 1098 c1 -17 30 -56 30 -39 0 7 5 9 12 5 7 -4 8 -3 4 5 -4 6
-12 9 -17 6 -5 -4 -9 1 -9 9 0 8 -4 18 -10 21 -5 3 -10 0 -10 -7z"/>
<path d="M2130 1060 c0 -5 5 -10 11 -10 5 0 7 5 4 10 -3 6 -8 10 -11 10 -2 0
-4 -4 -4 -10z"/>
<path d="M2218 1063 c7 -3 16 -2 19 1 4 3 -2 6 -13 5 -11 0 -14 -3 -6 -6z"/>
<path d="M2188 1043 c6 -2 18 -2 25 0 6 3 1 5 -13 5 -14 0 -19 -2 -12 -5z"/>
<path d="M2140 1011 c0 -17 2 -31 4 -31 8 0 13 51 5 56 -5 3 -9 -9 -9 -25z"/>
<path d="M2169 1028 c-5 -11 -7 -59 -2 -54 7 6 13 56 7 56 -2 0 -5 -1 -5 -2z"/>
<path d="M2178 959 c-10 -6 -17 -20 -16 -34 1 -13 6 -21 10 -19 5 3 6 9 3 14
-3 5 2 16 11 25 20 19 15 27 -8 14z"/>
<path d="M2220 861 c0 -5 5 -13 10 -16 6 -3 10 -2 10 4 0 5 -4 13 -10 16 -5 3
-10 2 -10 -4z"/>
<path d="M2210 780 c-9 -6 -10 -10 -3 -10 6 0 15 5 18 10 8 12 4 12 -15 0z"/>
<path d="M2003 1868 c3 -9 0 -21 -6 -28 -9 -10 -9 -11 1 -6 8 5 12 0 12 -16 0
-26 7 -36 33 -57 15 -12 17 -12 11 2 -3 8 -12 18 -20 21 -8 3 -14 13 -14 22 0
12 5 15 23 9 12 -4 32 -8 45 -9 12 0 22 -4 22 -7 0 -10 -31 -20 -41 -14 -5 4
-6 -1 -3 -10 5 -12 10 -13 17 -6 6 6 19 11 29 11 10 0 17 3 16 8 -1 4 4 18 11
31 11 20 11 26 -4 40 -16 15 -17 15 -6 -6 8 -16 9 -23 1 -23 -6 0 -9 -4 -6 -9
7 -11 -44 -11 -67 1 -23 12 -12 28 21 29 18 1 21 3 9 6 -10 3 -31 0 -47 -5
-23 -8 -28 -8 -24 3 3 7 0 16 -7 21 -8 5 -11 2 -6 -8z"/>
<path d="M2048 1873 c7 -3 16 -2 19 1 4 3 -2 6 -13 5 -11 0 -14 -3 -6 -6z"/>
<path d="M1887 1763 c-10 -9 -9 -23 1 -23 5 0 9 7 9 15 0 17 -1 18 -10 8z"/>
<path d="M1980 1760 c0 -5 5 -10 11 -10 5 0 7 5 4 10 -3 6 -8 10 -11 10 -2 0
-4 -4 -4 -10z"/>
<path d="M1898 1723 c-22 -5 -24 -23 -3 -23 8 0 15 5 15 11 0 8 6 7 17 -2 14
-12 16 -12 12 0 -6 17 -17 20 -41 14z"/>
<path d="M1830 1668 c0 -19 2 -20 10 -8 13 19 13 30 0 30 -5 0 -10 -10 -10
-22z"/>
<path d="M1865 1680 c3 -5 8 -10 11 -10 2 0 4 5 4 10 0 6 -5 10 -11 10 -5 0
-7 -4 -4 -10z"/>
<path d="M1807 1673 c-4 -3 -7 -11 -7 -17 0 -6 5 -5 12 2 6 6 9 14 7 17 -3 3
-9 2 -12 -2z"/>
<path d="M1770 1625 c-7 -8 -11 -15 -9 -16 37 -7 40 -7 30 5 -6 7 -8 16 -4 19
3 4 4 7 1 7 -3 0 -11 -7 -18 -15z"/>
<path d="M374 1729 c-10 -17 13 -36 27 -22 12 12 4 33 -11 33 -5 0 -12 -5 -16
-11z"/>
<path d="M3736 1698 c-18 -25 -21 -68 -6 -68 6 0 10 7 10 15 0 9 7 29 15 45
18 35 3 40 -19 8z"/>
<path d="M3995 1659 c-10 -15 1 -23 20 -15 9 3 13 10 10 16 -8 13 -22 13 -30
-1z"/>
<path d="M1877 1539 c24 -25 482 -45 491 -21 3 10 -13 11 -75 6 -43 -4 -117
-2 -163 4 -47 6 -125 14 -175 18 -74 5 -88 4 -78 -7z"/>
<path d="M1886 1492 c-16 -15 1 -20 84 -21 76 -2 90 0 90 14 0 13 -14 15 -84
14 -47 -1 -87 -4 -90 -7z"/>
<path d="M2150 1475 l-35 -13 50 -1 c87 -2 82 -18 -8 -25 -57 -5 -93 -3 -110
5 -28 13 -62 5 -52 -11 3 -5 15 -10 27 -10 14 0 18 -5 14 -15 -4 -12 6 -15 59
-15 51 0 65 3 65 15 0 12 14 15 63 16 40 0 55 3 42 8 -16 6 -10 10 27 15 69
10 67 22 -5 29 -34 3 -71 8 -82 11 -11 3 -36 -1 -55 -9z"/>
<path d="M2093 1373 c-40 -2 -73 -8 -73 -13 0 -11 110 -13 159 -4 35 7 43 25
9 22 -13 -1 -56 -4 -95 -5z"/>
<path d="M1335 1334 c15 -11 33 -14 69 -10 85 10 79 26 -9 26 -74 -1 -79 -2
-60 -16z"/>
<path d="M1850 1341 c0 -3 -24 -7 -54 -7 -29 -1 -60 -5 -69 -10 -10 -6 13 -9
62 -8 85 2 136 17 87 26 -14 3 -26 2 -26 -1z"/>
<path d="M2077 1324 c-9 -9 2 -24 17 -24 7 0 21 7 32 15 18 14 17 14 -12 15
-17 0 -34 -3 -37 -6z"/>
<path d="M3745 1420 c-8 -13 4 -32 16 -25 12 8 12 35 0 35 -6 0 -13 -4 -16
-10z"/>
<path d="M534 1516 c-8 -22 3 -33 18 -18 9 9 9 15 0 24 -9 9 -13 7 -18 -6z"/>
<path d="M4020 1450 c0 -5 7 -10 15 -10 8 0 15 5 15 10 0 6 -7 10 -15 10 -8 0
-15 -4 -15 -10z"/>
<path d="M560 1325 c0 -8 7 -15 15 -15 8 0 15 7 15 15 0 8 -7 15 -15 15 -8 0
-15 -7 -15 -15z"/>
<path d="M2330 1400 c-13 -8 -12 -10 3 -10 9 0 17 5 17 10 0 12 -1 12 -20 0z"/>
<path d="M712 1381 c4 -13 18 -16 19 -4 0 4 -5 9 -11 12 -7 2 -11 -2 -8 -8z"/>
<path d="M3777 1183 c-12 -11 -8 -23 8 -23 8 0 15 7 15 15 0 16 -12 20 -23 8z"/>
<path d="M3525 1090 c-3 -5 2 -10 12 -10 11 0 24 -5 31 -12 7 -7 12 -9 12 -6
0 10 -30 38 -40 38 -5 0 -12 -4 -15 -10z"/>
<path d="M3522 1038 c6 -18 28 -21 28 -4 0 9 -7 16 -16 16 -9 0 -14 -5 -12
-12z"/>
<path d="M3150 895 c0 -9 5 -15 11 -13 6 2 11 8 11 13 0 5 -5 11 -11 13 -6 2
-11 -4 -11 -13z"/>
<path d="M3436 913 c-11 -11 -6 -23 9 -23 8 0 15 4 15 9 0 13 -16 22 -24 14z"/>
<path d="M1065 810 c-3 -6 1 -13 10 -16 19 -8 30 0 20 15 -8 14 -22 14 -30 1z"/>
<path d="M885 780 c-10 -17 12 -37 25 -24 8 8 6 15 -4 23 -10 9 -16 9 -21 1z"/>
<path d="M3355 711 c-3 -5 -1 -12 5 -16 12 -7 30 2 30 16 0 12 -27 12 -35 0z"/>
<path d="M1329 765 c49 -28 64 -26 36 5 -11 12 -31 20 -49 20 l-31 0 44 -25z"/>
<path d="M3115 720 c-4 -6 -3 -16 3 -22 6 -6 12 -6 17 2 4 6 3 16 -3 22 -6 6
-12 6 -17 -2z"/>
<path d="M2990 635 c0 -8 7 -15 15 -15 8 0 15 7 15 15 0 8 -7 15 -15 15 -8 0
-15 -7 -15 -15z"/>
<path d="M2656 643 c-11 -11 -6 -23 9 -23 8 0 15 4 15 9 0 13 -16 22 -24 14z"/>
<path d="M1425 600 c-7 -12 2 -30 16 -30 12 0 12 27 0 35 -5 3 -12 1 -16 -5z"/>
<path d="M1550 535 c0 -8 7 -15 15 -15 8 0 15 7 15 15 0 8 -7 15 -15 15 -8 0
-15 -7 -15 -15z"/>
<path d="M1255 520 c-7 -12 2 -30 16 -30 12 0 12 27 0 35 -5 3 -12 1 -16 -5z"/>
<path d="M2895 600 c-4 -6 -3 -16 3 -22 6 -6 12 -6 17 2 4 6 3 16 -3 22 -6 6
-12 6 -17 -2z"/>
<path d="M2687 444 c-8 -8 1 -24 14 -24 5 0 9 7 9 15 0 15 -12 20 -23 9z"/>
<path d="M2410 445 c0 -8 7 -15 15 -15 8 0 15 7 15 15 0 8 -7 15 -15 15 -8 0
-15 -7 -15 -15z"/>
<path d="M2575 331 c-7 -12 12 -24 25 -16 11 7 4 25 -10 25 -5 0 -11 -4 -15
-9z"/>
<path d="M1860 305 c0 -8 7 -15 15 -15 8 0 15 7 15 15 0 8 -7 15 -15 15 -8 0
-15 -7 -15 -15z"/>
<path d="M2010 285 c0 -8 7 -15 15 -15 8 0 15 7 15 15 0 8 -7 15 -15 15 -8 0
-15 -7 -15 -15z"/>
<path d="M2315 300 c-7 -12 2 -30 16 -30 12 0 12 27 0 35 -5 3 -12 1 -16 -5z"/>
</g>
</svg>
