<svg xmlns="http://www.w3.org/2000/svg" viewBox="0 0 444 445">
<g fill="#000000">
<polygon points="0.0,201.5 0.5,201.0 0.5,200.0 0.5,199.0 0.5,198.0 0.5,197.0 0.5,196.0 0.5,195.0 0.5,194.0 0.5,193.0 0.5,192.0 0.5,191.0 0.5,190.0 1.0,189.5 1.5,189.0 1.5,188.0 1.5,187.0 1.5,186.0 1.5,185.0 2.0,184.5 2.5,184.0 2.5,183.0 2.5,182.0 2.5,181.0 2.5,180.0 3.0,179.5 3.5,179.0 3.5,178.0 3.5,177.0 3.5,176.0 4.0,175.5 4.5,175.0 4.5,174.0 4.5,173.0 4.5,172.0 4.5,171.0 5.0,170.5 5.5,170.0 5.5,169.0 5.5,168.0 5.5,167.0 6.0,166.5 6.5,166.0 6.5,165.0 6.5,164.0 7.0,163.5 7.5,163.0 7.5,162.0 7.5,161.0 7.5,160.0 8.0,159.5 8.5,159.0 8.5,158.0 8.5,157.0 9.0,156.5 9.5,156.0 9.5,155.0 9.5,154.0 9.5,153.0 10.0,152.5 10.5,152.0 10.5,151.0 10.5,150.0 11.0,149.5 11.5,149.0 11.5,148.0 12.0,147.5 12.5,147.0 12.5,146.0 12.5,145.0 13.0,144.5 13.5,144.0 13.5,143.0 13.5,142.0 14.0,141.5 14.5,141.0 14.5,140.0 15.0,139.5 15.5,139.0 15.5,138.0 15.5,137.0 16.0,136.5 16.5,136.0 16.5,135.0 16.5,134.0 17.0,133.5 17.5,133.0 17.5,132.0 18.0,131.5 18.5,131.0 19.0,130.5 19.5,130.0 19.5,129.0 19.5,128.0 20.0,127.5 20.5,127.0 20.5,126.0 21.0,125.5 21.5,125.0 21.5,124.0 21.5,123.0 22.0,122.5 22.5,122.0 22.5,121.0 23.0,120.5 23.5,120.0 24.0,119.5 24.5,119.0 24.5,118.0 25.0,117.5 25.5,117.0 26.0,116.5 26.5,116.0 26.5,115.0 27.0,114.5 27.5,114.0 27.5,113.0 27.5,112.0 28.0,111.5 29.0,111.5 29.5,111.0 29.5,110.0 29.5,109.0 30.0,108.5 30.5,108.0 31.0,107.5 31.5,107.0 31.0,106.5 30.5,106.0 31.0,105.5 32.0,105.5 32.5,105.0 32.5,104.0 33.0,103.5 33.5,103.0 33.5,102.0 34.0,101.5 35.0,101.5 35.5,101.0 35.5,100.0 36.0,99.5 36.5,99.0 36.5,98.0 37.0,97.5 37.5,97.0 38.0,96.5 38.5,96.0 39.0,95.5 39.5,95.0 39.5,94.0 40.0,93.5 40.5,93.0 41.0,92.5 41.5,92.0 41.5,91.0 42.0,90.5 42.5,90.0 43.0,89.5 43.5,89.0 43.5,88.0 44.0,87.5 44.5,87.0 45.0,86.5 45.5,86.0 46.0,85.5 46.5,85.0 46.5,84.0 47.0,83.5 48.0,83.5 48.5,83.0 48.5,82.0 49.0,81.5 49.5,81.0 50.0,80.5 50.5,80.0 50.5,79.0 51.0,78.5 52.0,78.5 52.5,78.0 53.0,77.5 53.5,77.0 53.5,76.0 54.0,75.5 54.5,75.0 54.5,74.0 55.0,73.5 56.0,73.5 56.5,73.0 57.0,72.5 57.5,72.0 58.0,71.5 58.5,71.0 58.5,70.0 59.0,69.5 60.0,69.5 60.5,69.0 61.0,68.5 61.5,68.0 62.0,67.5 62.5,67.0 63.0,66.5 63.5,66.0 64.0,65.5 64.5,65.0 64.5,64.0 65.0,63.5 66.0,63.5 66.5,63.0 67.0,62.5 67.5,62.0 68.0,61.5 68.5,61.0 68.0,60.5 67.5,60.0 68.0,59.5 68.5,59.0 69.0,58.5 70.0,58.5 70.5,58.0 71.0,57.5 72.0,57.5 73.0,57.5 73.5,57.0 73.5,56.0 74.0,55.5 74.5,55.0 75.0,54.5 75.5,54.0 76.0,53.5 77.0,53.5 77.5,53.0 78.0,52.5 78.5,52.0 79.0,51.5 79.5,51.0 80.0,50.5 80.5,50.0 81.0,49.5 82.0,49.5 82.5,49.0 83.0,48.5 83.5,48.0 84.0,47.5 84.5,47.0 85.0,46.5 85.5,46.0 86.0,45.5 87.0,45.5 87.5,45.0 88.0,44.5 88.5,44.0 89.0,43.5 89.5,43.0 90.0,42.5 91.0,42.5 91.5,42.0 92.0,41.5 92.5,41.0 92.5,40.0 93.0,39.5 94.0,39.5 95.0,39.5 95.5,39.0 96.0,38.5 96.5,38.0 97.0,37.5 98.0,37.5 98.5,37.0 99.0,36.5 99.5,36.0 100.0,35.5 101.0,35.5 101.5,35.0 102.0,34.5 102.5,34.0 103.0,33.5 104.0,33.5 105.0,33.5 105.5,33.0 106.0,32.5 106.5,32.0 107.0,31.5 108.0,31.5 108.5,31.0 109.0,30.5 109.5,30.0 110.0,29.5 111.0,29.5 111.5,29.0 112.0,28.5 112.5,28.0 113.0,27.5 114.0,27.5 114.5,27.0 115.0,26.5 116.0,26.5 116.5,26.0 117.0,25.5 118.0,25.5 118.5,25.0 119.0,24.5 120.0,24.5 120.5,24.0 121.0,23.5 122.0,23.5 122.5,23.0 123.0,22.5 124.0,22.5 124.5,22.0 125.0,21.5 126.0,21.5 126.5,21.0 127.0,20.5 128.0,20.5 128.5,20.0 129.0,19.5 130.0,19.5 131.0,19.5 131.5,19.0 132.0,18.5 132.5,18.0 133.0,17.5 134.0,17.5 135.0,17.5 135.5,17.0 136.0,16.5 136.5,16.0 137.0,15.5 138.0,15.5 139.0,15.5 140.0,15.5 141.0,15.5 141.5,15.0 142.0,14.5 143.0,14.5 143.5,14.0 144.0,13.5 145.0,13.5 146.0,13.5 146.5,13.0 147.0,12.5 148.0,12.5 148.5,12.0 149.0,11.5 150.0,11.5 151.0,11.5 151.5,11.0 152.0,10.5 153.0,10.5 154.0,10.5 154.5,10.0 155.0,9.5 156.0,9.5 157.0,9.5 158.0,9.5 158.5,9.0 159.0,8.5 160.0,8.5 160.5,8.0 161.0,7.5 162.0,7.5 163.0,7.5 164.0,7.5 165.0,7.5 166.0,7.5 166.5,7.0 167.0,6.5 168.0,6.5 169.0,6.5 169.5,6.0 170.0,5.5 171.0,5.5 172.0,5.5 173.0,5.5 174.0,5.5 174.5,5.0 175.0,4.5 176.0,4.5 176.5,4.0 177.0,3.5 178.0,3.5 179.0,3.5 180.0,3.5 181.0,3.5 182.0,3.5 183.0,3.5 184.0,3.5 184.5,3.0 185.0,2.5 186.0,2.5 187.0,2.5 188.0,2.5 189.0,2.5 190.0,2.5 190.5,2.0 191.0,1.5 192.0,1.5 193.0,1.5 194.0,1.5 195.0,1.5 196.0,1.5 197.0,1.5 198.0,1.5 199.0,1.5 200.0,1.5 200.5,1.0 201.0,0.5 202.0,0.5 203.0,0.5 204.0,0.5 205.0,0.5 206.0,0.5 207.0,0.5 208.0,0.5 209.0,0.5 210.0,0.5 211.0,0.5 211.5,0.0"/>
<polygon points="233.5,0.0 234.0,0.5 235.0,0.5 236.0,0.5 237.0,0.5 238.0,0.5 239.0,0.5 240.0,0.5 241.0,0.5 241.5,1.0 242.0,1.5 243.0,1.5 244.0,1.5 245.0,1.5 246.0,1.5 247.0,1.5 248.0,1.5 249.0,1.5 250.0,1.5 251.0,1.5 252.0,1.5 252.5,2.0 253.0,2.5 254.0,2.5 255.0,2.5 256.0,2.5 257.0,2.5 257.5,3.0 258.0,3.5 259.0,3.5 260.0,3.5 261.0,3.5 262.0,3.5 263.0,3.5 264.0,3.5 265.0,3.5 265.5,4.0 266.0,4.5 267.0,4.5 268.0,4.5 268.5,5.0 269.0,5.5 270.0,5.5 271.0,5.5 272.0,5.5 273.0,5.5 273.5,6.0 274.0,6.5 275.0,6.5 276.0,6.5 277.0,6.5 277.5,7.0 278.0,7.5 279.0,7.5 280.0,7.5 281.0,7.5 282.0,7.5 282.5,8.0 283.0,8.5 284.0,8.5 284.5,9.0 285.0,9.5 286.0,9.5 287.0,9.5 288.0,9.5 288.5,10.0 289.0,10.5 289.5,11.0 290.0,11.5 291.0,11.5 292.0,11.5 293.0,11.5 293.5,12.0 294.0,12.5 295.0,12.5 296.0,12.5 296.5,13.0 297.0,13.5 298.0,13.5 299.0,13.5 299.5,14.0 300.0,14.5 301.0,14.5 301.5,15.0 302.0,15.5 303.0,15.5 304.0,15.5 304.5,16.0 305.0,16.5 305.5,17.0 306.0,17.5 307.0,17.5 308.0,17.5 309.0,17.5 310.0,17.5 310.5,18.0 311.0,18.5 311.5,19.0 312.0,19.5 313.0,19.5 313.5,20.0 314.0,20.5 315.0,20.5 315.5,21.0 316.0,21.5 317.0,21.5 318.0,21.5 318.5,22.0 319.0,22.5 319.5,23.0 320.0,23.5 321.0,23.5 322.0,23.5 322.5,24.0 323.0,24.5 323.5,25.0 324.0,25.5 325.0,25.5 326.0,25.5 326.5,26.0 327.0,26.5 327.5,27.0 328.0,27.5 329.0,27.5 329.5,28.0 330.0,28.5 330.5,29.0 331.0,29.5 332.0,29.5 333.0,29.5 333.5,30.0 334.0,30.5 334.5,31.0 335.0,31.5 336.0,31.5 336.5,32.0 337.0,32.5 337.5,33.0 338.0,33.5 339.0,33.5 339.5,34.0 340.0,34.5 340.5,35.0 341.0,35.5 342.0,35.5 342.5,36.0 343.0,36.5 344.0,36.5 344.5,37.0 345.0,37.5 346.0,37.5 346.5,38.0 347.0,38.5 347.5,39.0 348.0,39.5 349.0,39.5 349.5,40.0 349.5,41.0 350.0,41.5 351.0,41.5 351.5,42.0 352.0,42.5 352.5,43.0 353.0,43.5 354.0,43.5 354.5,44.0 355.0,44.5 355.5,45.0 356.0,45.5 357.0,45.5 357.5,46.0 358.0,46.5 358.5,47.0 359.0,47.5 359.5,48.0 360.0,48.5 360.5,49.0 361.0,49.5 361.5,50.0 362.0,50.5 362.5,51.0 363.0,51.5 364.0,51.5 364.5,52.0 365.0,52.5 365.5,53.0 366.0,53.5 366.5,54.0 367.0,54.5 367.5,55.0 368.0,55.5 369.0,55.5 369.5,56.0 369.5,57.0 370.0,57.5 371.0,57.5 371.5,58.0 371.5,59.0 372.0,59.5 373.0,59.5 373.5,60.0 374.0,60.5 374.5,61.0 375.0,61.5 375.5,62.0 376.0,62.5 376.5,63.0 377.0,63.5 377.5,64.0 378.0,64.5 378.5,65.0 379.0,65.5 379.5,66.0 380.0,66.5 380.5,67.0 381.0,67.5 381.5,68.0 381.5,69.0 382.0,69.5 383.0,69.5 383.5,70.0 383.5,71.0 384.0,71.5 385.0,71.5 385.5,72.0 385.5,73.0 386.0,73.5 386.5,74.0 387.0,74.5 387.5,75.0 388.0,75.5 388.5,76.0 389.0,76.5 389.5,77.0 390.0,77.5 390.5,78.0 390.5,79.0 391.0,79.5 391.5,80.0 392.0,80.5 392.5,81.0 393.0,81.5 393.5,82.0 394.0,82.5 394.5,83.0 395.0,83.5 395.5,84.0 396.0,84.5 396.5,85.0 397.0,85.5 397.5,86.0 397.5,87.0 398.0,87.5 398.5,88.0 399.0,88.5 399.5,89.0 399.5,90.0 400.0,90.5 400.5,91.0 401.0,91.5 401.5,92.0 401.5,93.0 402.0,93.5 403.0,93.5 403.5,94.0 403.5,95.0 404.0,95.5 404.5,96.0 404.5,97.0 405.0,97.5 405.5,98.0 405.5,99.0 406.0,99.5 407.0,99.5 407.5,100.0 407.5,101.0 408.0,101.5 408.5,102.0 408.5,103.0 409.0,103.5 409.5,104.0 409.5,105.0 410.0,105.5 410.5,106.0 411.0,106.5 411.5,107.0 411.5,108.0 412.0,108.5 412.5,109.0 413.0,109.5 413.5,110.0 413.5,111.0 414.0,111.5 414.5,112.0 414.5,113.0 415.0,113.5 415.5,114.0 415.5,115.0 416.0,115.5 416.5,116.0 416.5,117.0 417.0,117.5 417.5,118.0 417.5,119.0 418.0,119.5 418.5,120.0 419.0,120.5 419.5,121.0 419.5,122.0 420.0,122.5 420.5,123.0 420.5,124.0 421.0,124.5 421.5,125.0 422.0,125.5 422.5,126.0 422.5,127.0 422.5,128.0 422.5,129.0 423.0,129.5 423.5,130.0 423.5,131.0 424.0,131.5 424.5,132.0 424.5,133.0 425.0,133.5 425.5,134.0 425.5,135.0 426.0,135.5 426.5,136.0 426.5,137.0 427.0,137.5 427.5,138.0 427.5,139.0 427.5,140.0 428.0,140.5 428.5,141.0 428.5,142.0 429.0,142.5 429.5,143.0 429.5,144.0 429.5,145.0 430.0,145.5 430.5,146.0 430.5,147.0 430.5,148.0 431.0,148.5 431.5,149.0 431.5,150.0 431.5,151.0 432.0,151.5 432.5,152.0 432.5,153.0 432.5,154.0 433.0,154.5 433.5,155.0 433.5,156.0 433.5,157.0 434.0,157.5 434.5,158.0 434.5,159.0 434.5,160.0 434.5,161.0 435.0,161.5 435.5,162.0 435.5,163.0 435.5,164.0 435.5,165.0 436.0,165.5 436.5,166.0 436.5,167.0 436.5,168.0 436.5,169.0 437.0,169.5 437.5,170.0 437.5,171.0 437.5,172.0 437.5,173.0 438.0,173.5 438.5,174.0 438.5,175.0 438.5,176.0 438.5,177.0 438.5,178.0 439.0,178.5 439.5,179.0 439.5,180.0 439.5,181.0 439.5,182.0 439.5,183.0 440.0,183.5 440.5,184.0 440.5,185.0 440.5,186.0 440.5,187.0 440.5,188.0 440.5,189.0 441.0,189.5 441.5,190.0 441.5,191.0 441.5,192.0 441.5,193.0 441.5,194.0 441.5,195.0 441.5,196.0 441.5,197.0 441.5,198.0 441.5,199.0 441.5,200.0 442.0,200.5 442.5,201.0 442.5,202.0 442.5,203.0 442.5,204.0 442.5,205.0 442.5,206.0 442.5,207.0 442.5,208.0 442.5,209.0 443.0,209.5"/>
<polygon points="443.0,234.5 442.5,235.0 442.5,236.0 442.5,237.0 442.5,238.0 442.5,239.0 442.5,240.0 442.5,241.0 442.5,242.0 442.5,243.0 442.5,244.0 442.0,244.5 441.5,245.0 441.5,246.0 441.5,247.0 441.5,248.0 441.5,249.0 441.5,250.0 441.5,251.0 441.5,252.0 441.5,253.0 441.5,254.0 441.0,254.5 440.5,255.0 440.5,256.0 440.5,257.0 440.5,258.0 440.5,259.0 440.0,259.5 439.5,260.0 439.5,261.0 439.5,262.0 439.5,263.0 439.5,264.0 439.5,265.0 439.0,265.5 438.5,266.0 438.5,267.0 438.5,268.0 438.5,269.0 438.5,270.0 438.5,271.0 438.0,271.5 437.5,272.0 437.5,273.0 437.5,274.0 437.0,274.5 436.5,275.0 436.5,276.0 436.5,277.0 436.5,278.0 436.5,279.0 436.0,279.5 435.5,280.0 435.5,281.0 435.5,282.0 435.5,283.0 435.0,283.5 434.5,284.0 434.5,285.0 434.0,285.5 433.5,286.0 433.5,287.0 433.5,288.0 433.5,289.0 433.0,289.5 432.5,290.0 432.5,291.0 432.0,291.5 431.5,292.0 431.5,293.0 431.5,294.0 431.5,295.0 431.0,295.5 430.5,296.0 430.5,297.0 430.0,297.5 429.5,298.0 429.5,299.0 429.5,300.0 429.5,301.0 429.0,301.5 428.5,302.0 428.5,303.0 428.5,304.0 428.0,304.5 427.5,305.0 427.0,305.5 426.5,306.0 426.5,307.0 426.0,307.5 425.5,308.0 425.5,309.0 425.5,310.0 425.0,310.5 424.5,311.0 424.5,312.0 424.5,313.0 424.0,313.5 423.5,314.0 423.5,315.0 423.0,315.5 422.5,316.0 422.5,317.0 422.0,317.5 421.5,318.0 421.5,319.0 421.0,319.5 420.5,320.0 420.5,321.0 420.0,321.5 419.5,322.0 419.5,323.0 419.0,323.5 418.5,324.0 418.5,325.0 418.0,325.5 417.5,326.0 417.5,327.0 417.0,327.5 416.5,328.0 416.0,328.5 415.5,329.0 415.5,330.0 415.5,331.0 415.0,331.5 414.5,332.0 414.5,333.0 414.0,333.5 413.5,334.0 413.5,335.0 413.0,335.5 412.0,335.5 411.5,336.0 412.0,336.5 412.5,337.0 412.0,337.5 411.0,337.5 410.5,338.0 410.5,339.0 410.0,339.5 409.5,340.0 409.5,341.0 409.0,341.5 408.0,341.5 407.5,342.0 407.5,343.0 407.0,343.5 406.5,344.0 406.5,345.0 406.0,345.5 405.5,346.0 405.5,347.0 405.0,347.5 404.5,348.0 404.0,348.5 403.5,349.0 403.0,349.5 402.5,350.0 402.5,351.0 402.0,351.5 401.5,352.0 401.0,352.5 400.5,353.0 400.0,353.5 399.5,354.0 399.5,355.0 399.0,355.5 398.5,356.0 398.0,356.5 397.5,357.0 397.5,358.0 397.0,358.5 396.5,359.0 396.0,359.5 395.5,360.0 395.0,360.5 394.5,361.0 394.0,361.5 393.5,362.0 393.5,363.0 393.0,363.5 392.5,364.0 392.0,364.5 391.5,365.0 391.0,365.5 390.5,366.0 390.0,366.5 389.5,367.0 389.0,367.5 388.5,368.0 388.0,368.5 387.5,369.0 387.0,369.5 386.5,370.0 386.5,371.0 386.0,371.5 385.0,371.5 384.5,372.0 384.5,373.0 384.0,373.5 383.5,374.0 383.0,374.5 382.5,375.0 382.0,375.5 381.5,376.0 381.0,376.5 380.5,377.0 380.0,377.5 379.5,378.0 379.0,378.5 378.5,379.0 378.0,379.5 377.5,380.0 377.0,380.5 376.5,381.0 376.0,381.5 375.5,382.0 375.0,382.5 374.5,383.0 374.0,383.5 373.5,384.0 373.0,384.5 372.5,385.0 372.0,385.5 371.5,386.0 371.0,386.5 370.5,387.0 370.0,387.5 369.0,387.5 368.5,388.0 368.0,388.5 367.5,389.0 367.0,389.5 366.5,390.0 366.0,390.5 365.5,391.0 365.0,391.5 364.5,392.0 364.0,392.5 363.5,393.0 363.0,393.5 362.0,393.5 361.5,394.0 361.0,394.5 360.5,395.0 360.0,395.5 359.5,396.0 359.0,396.5 358.5,397.0 358.0,397.5 357.0,397.5 356.5,398.0 356.0,398.5 355.5,399.0 355.0,399.5 354.5,400.0 354.0,400.5 353.5,401.0 353.0,401.5 352.0,401.5 351.5,402.0 351.5,403.0 351.0,403.5 350.0,403.5 349.0,403.5 348.5,404.0 348.0,404.5 347.5,405.0 347.0,405.5 346.0,405.5 345.5,406.0 345.0,406.5 344.5,407.0 344.0,407.5 343.0,407.5 342.5,408.0 342.5,409.0 342.0,409.5 341.0,409.5 340.0,409.5 339.5,410.0 339.0,410.5 338.5,411.0 338.0,411.5 337.0,411.5 336.5,412.0 336.0,412.5 335.5,413.0 335.0,413.5 334.0,413.5 333.5,414.0 333.5,415.0 333.0,415.5 332.5,415.0 332.0,414.5 331.5,415.0 331.0,415.5 330.5,416.0 330.0,416.5 329.0,416.5 328.0,416.5 327.5,417.0 327.0,417.5 326.0,417.5 325.5,418.0 325.0,418.5 324.5,419.0 324.0,419.5 323.0,419.5 322.0,419.5 321.5,420.0 321.0,420.5 320.5,421.0 320.0,421.5 319.0,421.5 318.0,421.5 317.5,422.0 317.0,422.5 316.5,423.0 316.0,423.5 315.0,423.5 314.0,423.5 313.5,424.0 313.0,424.5 312.5,425.0 312.0,425.5 311.0,425.5 310.0,425.5 309.5,426.0 309.0,426.5 308.5,427.0 308.0,427.5 307.0,427.5 306.0,427.5 305.0,427.5 304.5,428.0 304.0,428.5 303.0,428.5 302.5,429.0 302.0,429.5 301.0,429.5 300.0,429.5 299.5,430.0 299.0,430.5 298.0,430.5 297.5,431.0 297.0,431.5 296.0,431.5 295.0,431.5 294.0,431.5 293.5,432.0 293.0,432.5 292.0,432.5 291.5,433.0 291.0,433.5 290.0,433.5 289.0,433.5 288.0,433.5 287.5,434.0 287.0,434.5 286.0,434.5 285.5,435.0 285.0,435.5 284.0,435.5 283.0,435.5 282.0,435.5 281.0,435.5 280.5,436.0 280.0,436.5 279.0,436.5 278.5,437.0 278.0,437.5 277.0,437.5 276.0,437.5 275.0,437.5 274.0,437.5 273.5,438.0 273.0,438.5 272.0,438.5 271.0,438.5 270.5,439.0 270.0,439.5 269.0,439.5 268.0,439.5 267.0,439.5 266.0,439.5 265.0,439.5 264.5,440.0 264.0,440.5 263.0,440.5 262.0,440.5 261.0,440.5 260.5,441.0 260.0,441.5 259.0,441.5 258.0,441.5 257.0,441.5 256.0,441.5 255.0,441.5 254.0,441.5 253.5,442.0 253.0,442.5 252.0,442.5 251.0,442.5 250.0,442.5 249.0,442.5 248.0,442.5 247.0,442.5 246.0,442.5 245.5,443.0 245.0,443.5 244.0,443.5 243.0,443.5 242.0,443.5 241.0,443.5 240.0,443.5 239.0,443.5 238.0,443.5 237.0,443.5 236.0,443.5 235.0,443.5 234.0,443.5 233.5,444.0"/>
<polygon points="211.5,444.0 211.0,443.5 210.0,443.5 209.0,443.5 208.0,443.5 207.0,443.5 206.0,443.5 205.0,443.5 204.0,443.5 203.0,443.5 202.0,443.5 201.0,443.5 200.0,443.5 199.0,443.5 198.0,443.5 197.0,443.5 196.0,443.5 195.5,443.0 195.0,442.5 194.0,442.5 193.0,442.5 192.0,442.5 191.0,442.5 190.0,442.5 189.5,442.0 189.0,441.5 188.0,441.5 187.0,441.5 186.0,441.5 185.0,441.5 184.0,441.5 183.0,441.5 182.0,441.5 181.5,441.0 181.0,440.5 180.0,440.5 179.0,440.5 178.5,440.0 178.0,439.5 177.0,439.5 176.0,439.5 175.0,439.5 174.0,439.5 173.0,439.5 172.5,439.0 172.0,438.5 171.0,438.5 170.0,438.5 169.5,438.0 169.0,437.5 168.0,437.5 167.0,437.5 166.0,437.5 165.0,437.5 164.5,437.0 164.0,436.5 163.0,436.5 162.0,436.5 161.5,436.0 161.0,435.5 160.0,435.5 159.0,435.5 158.0,435.5 157.5,435.0 157.0,434.5 156.0,434.5 155.0,434.5 154.5,434.0 154.0,433.5 153.0,433.5 152.0,433.5 151.0,433.5 150.0,433.5 149.5,433.0 149.0,432.5 148.5,432.0 148.0,431.5 147.0,431.5 146.0,431.5 145.0,431.5 144.5,431.0 144.0,430.5 143.0,430.5 142.5,430.0 142.0,429.5 141.0,429.5 140.0,429.5 139.5,429.0 139.0,428.5 138.5,428.0 138.0,427.5 137.0,427.5 136.0,427.5 135.0,427.5 134.5,427.0 134.0,426.5 133.0,426.5 132.5,426.0 132.0,425.5 131.0,425.5 130.0,425.5 129.5,425.0 129.0,424.5 128.5,424.0 128.0,423.5 127.0,423.5 126.0,423.5 125.5,423.0 125.0,422.5 124.5,422.0 124.0,421.5 123.0,421.5 122.0,421.5 121.5,421.0 121.0,420.5 120.0,420.5 119.5,420.0 119.0,419.5 118.0,419.5 117.5,419.0 117.0,418.5 116.5,418.0 116.0,417.5 115.0,417.5 114.5,417.0 114.0,416.5 113.0,416.5 112.5,416.0 112.0,415.5 111.0,415.5 110.5,415.0 110.0,414.5 109.5,414.0 109.0,413.5 108.0,413.5 107.5,413.0 107.0,412.5 106.5,412.0 106.0,411.5 105.0,411.5 104.0,411.5 103.5,411.0 103.0,410.5 102.5,410.0 102.0,409.5 101.0,409.5 100.5,409.0 100.0,408.5 99.5,408.0 99.0,407.5 98.0,407.5 97.5,407.0 97.0,406.5 96.5,406.0 96.0,405.5 95.0,405.5 94.5,405.0 94.0,404.5 93.5,404.0 93.0,403.5 92.0,403.5 91.5,403.0 91.0,402.5 90.5,402.0 90.0,401.5 89.5,401.0 89.0,400.5 88.5,400.0 88.0,399.5 87.0,399.5 86.5,399.0 86.0,398.5 85.5,398.0 85.0,397.5 84.0,397.5 83.5,397.0 83.0,396.5 82.5,396.0 82.0,395.5 81.5,395.0 81.0,394.5 80.5,394.0 80.0,393.5 79.5,393.0 79.0,392.5 78.5,392.0 78.0,391.5 77.5,392.0 77.0,392.5 76.5,392.0 76.5,391.0 76.0,390.5 75.5,390.0 75.0,389.5 74.5,389.0 74.0,388.5 73.5,388.0 73.0,387.5 72.0,387.5 71.5,387.0 71.5,386.0 71.0,385.5 70.0,385.5 69.5,385.0 69.5,384.0 69.0,383.5 68.0,383.5 67.5,383.0 67.0,382.5 66.5,382.0 66.0,381.5 65.5,381.0 65.0,380.5 64.5,380.0 64.0,379.5 63.5,379.0 63.0,378.5 62.5,378.0 62.0,377.5 61.5,377.0 61.0,376.5 60.5,376.0 60.0,375.5 59.5,375.0 59.5,374.0 59.0,373.5 58.0,373.5 57.5,373.0 57.5,372.0 57.0,371.5 56.0,371.5 55.5,371.0 55.5,370.0 55.0,369.5 54.5,369.0 54.0,368.5 53.5,368.0 53.0,367.5 52.5,367.0 52.0,366.5 51.5,366.0 51.0,365.5 50.5,365.0 50.0,364.5 49.5,364.0 49.0,363.5 48.5,363.0 48.5,362.0 48.0,361.5 47.5,361.0 47.0,360.5 46.5,360.0 46.0,359.5 45.5,359.0 45.5,358.0 45.0,357.5 44.5,357.0 44.5,356.0 44.0,355.5 43.0,355.5 42.5,355.0 42.5,354.0 42.0,353.5 41.5,353.0 41.5,352.0 41.0,351.5 40.5,351.0 40.0,350.5 39.5,350.0 39.0,349.5 38.5,349.0 38.5,348.0 38.0,347.5 37.5,347.0 37.0,346.5 36.5,346.0 36.5,345.0 36.0,344.5 35.5,344.0 35.0,343.5 34.5,343.0 34.5,342.0 34.0,341.5 33.5,341.0 33.0,340.5 32.5,340.0 32.5,339.0 32.0,338.5 31.5,338.0 31.0,337.5 30.5,337.0 30.5,336.0 30.0,335.5 29.5,335.0 29.5,334.0 29.0,333.5 28.0,333.5 27.5,333.0 27.5,332.0 27.5,331.0 27.5,330.0 27.0,329.5 26.5,329.0 26.0,328.5 25.5,328.0 25.5,327.0 25.0,326.5 24.5,326.0 24.5,325.0 24.0,324.5 23.5,324.0 23.0,323.5 22.5,323.0 22.5,322.0 22.0,321.5 21.5,321.0 21.5,320.0 21.5,319.0 21.0,318.5 20.5,318.0 20.0,317.5 19.5,317.0 19.5,316.0 19.5,315.0 19.5,314.0 19.0,313.5 18.5,313.0 18.5,312.0 18.0,311.5 17.5,311.0 17.5,310.0 17.0,309.5 16.5,309.0 16.5,308.0 16.0,307.5 15.5,307.0 15.5,306.0 15.5,305.0 15.0,304.5 14.5,304.0 14.0,303.5 13.5,303.0 13.5,302.0 13.5,301.0 13.0,300.5 12.5,300.0 12.5,299.0 12.5,298.0 12.0,297.5 11.5,297.0 11.5,296.0 11.5,295.0 11.5,294.0 11.0,293.5 10.5,293.0 10.5,292.0 10.0,291.5 9.5,291.0 9.5,290.0 9.5,289.0 9.5,288.0 9.0,287.5 8.5,287.0 8.5,286.0 8.0,285.5 7.5,285.0 7.5,284.0 7.5,283.0 7.5,282.0 7.5,281.0 7.0,280.5 6.5,280.0 6.5,279.0 6.5,278.0 6.0,277.5 5.5,277.0 5.5,276.0 5.5,275.0 5.5,274.0 5.0,273.5 4.5,273.0 4.5,272.0 4.5,271.0 4.5,270.0 4.0,269.5 3.5,269.0 3.5,268.0 3.5,267.0 3.5,266.0 3.5,265.0 3.5,264.0 3.0,263.5 2.5,263.0 2.5,262.0 2.5,261.0 2.5,260.0 2.0,259.5 1.5,259.0 1.5,258.0 1.5,257.0 1.5,256.0 1.5,255.0 1.5,254.0 1.0,253.5 0.5,253.0 0.5,252.0 0.5,251.0 0.5,250.0 0.5,249.0 0.5,248.0 0.5,247.0 0.5,246.0 0.5,245.0 0.5,244.0 0.0,243.5"/>
<polygon points="3.0,285.5 2.5,285.0 2.0,284.5 1.5,284.0 2.0,283.5 3.0,283.5 3.5,284.0 3.5,285.0 3.0,285.5"/>
<polygon points="82.0,398.5 81.5,398.0 82.0,397.5 82.5,398.0 82.0,398.5"/>
<polygon points="89.0,402.5 88.5,402.0 89.0,401.5 89.5,402.0 89.0,402.5"/>
<polygon points="100.0,410.5 99.5,410.0 100.0,409.5 100.5,410.0 100.0,410.5"/>
</g></svg>